<?xml version="1.0" encoding="UTF-8" standalone="no"?>
<!DOCTYPE svg PUBLIC "-//W3C//DTD SVG 1.1//EN" "http://www.w3.org/Graphics/SVG/1.1/DTD/svg11.dtd">
<svg width="1866px" height="1038px" version="1.1" xmlns="http://www.w3.org/2000/svg" xmlns:xlink="http://www.w3.org/1999/xlink" xml:space="preserve" xmlns:serif="http://www.serif.com/" style="fill-rule:evenodd;clip-rule:evenodd;stroke-linecap:round;stroke-linejoin:round;stroke-miterlimit:1.5;">
    <g id="precision-sled-v5">
        <g>
            <path d="M1008.37,385.461L1008.37,381.858" style="fill:none;stroke:#910000;stroke-width:0.77px;"/>
            <path d="M1006.56,383.659L1010.18,383.659" style="fill:none;stroke:#910000;stroke-width:0.77px;"/>
            <path d="M993.26,385.461L993.26,381.858" style="fill:none;stroke:#910000;stroke-width:0.77px;"/>
            <path d="M1000.75,393.577L1000.75,391.177" style="fill:none;stroke:#910000;stroke-width:0.77px;"/>
            <path d="M993.26,393.577L993.26,391.177" style="fill:none;stroke:#910000;stroke-width:0.77px;"/>
            <path d="M1008.38,393.577L1008.38,391.177" style="fill:none;stroke:#910000;stroke-width:0.77px;"/>
            <path d="M1010.49,415.638L1008.91,415.638" style="fill:none;stroke:#910000;stroke-width:0.77px;"/>
            <path d="M992.717,415.638L991.136,415.638" style="fill:none;stroke:#910000;stroke-width:0.77px;"/>
            <path d="M1002.02,396.741C1002.02,396.078 1001.48,395.541 1000.82,395.541C1000.16,395.541 999.619,396.078 999.619,396.741C999.619,397.403 1000.16,397.941 1000.82,397.941C1001.48,397.941 1002.02,397.403 1002.02,396.741Z" style="fill:none;stroke:#910000;stroke-width:0.77px;"/>
            <path d="M1002.4,400.52C1002.4,399.858 1001.86,399.32 1001.2,399.32C1000.53,399.32 999.997,399.858 999.997,400.52C999.997,401.183 1000.53,401.72 1001.2,401.72C1001.86,401.72 1002.4,401.183 1002.4,400.52Z" style="fill:none;stroke:#910000;stroke-width:0.77px;"/>
            <path d="M998.239,396.741C998.239,396.078 997.702,395.541 997.039,395.541C996.377,395.541 995.839,396.078 995.839,396.741C995.839,397.403 996.377,397.941 997.039,397.941C997.702,397.941 998.239,397.403 998.239,396.741Z" style="fill:none;stroke:#910000;stroke-width:0.77px;"/>
            <path d="M998.617,400.52C998.617,399.858 998.08,399.32 997.417,399.32C996.755,399.32 996.217,399.858 996.217,400.52C996.217,401.183 996.755,401.72 997.417,401.72C998.08,401.72 998.617,401.183 998.617,400.52Z" style="fill:none;stroke:#910000;stroke-width:0.77px;"/>
            <path d="M994.46,396.741C994.46,396.078 993.922,395.541 993.26,395.541C992.598,395.541 992.06,396.078 992.06,396.741C992.06,397.403 992.598,397.941 993.26,397.941C993.922,397.941 994.46,397.403 994.46,396.741Z" style="fill:none;stroke:#910000;stroke-width:0.77px;"/>
            <path d="M994.838,400.52C994.838,399.858 994.3,399.32 993.638,399.32C992.975,399.32 992.438,399.858 992.438,400.52C992.438,401.183 992.975,401.72 993.638,401.72C994.3,401.72 994.838,401.183 994.838,400.52Z" style="fill:none;stroke:#910000;stroke-width:0.77px;"/>
            <path d="M1005.8,396.741C1005.8,396.078 1005.26,395.541 1004.6,395.541C1003.94,395.541 1003.4,396.078 1003.4,396.741C1003.4,397.403 1003.94,397.941 1004.6,397.941C1005.26,397.941 1005.8,397.403 1005.8,396.741Z" style="fill:none;stroke:#910000;stroke-width:0.77px;"/>
            <path d="M1006.18,400.52C1006.18,399.858 1005.64,399.32 1004.98,399.32C1004.31,399.32 1003.78,399.858 1003.78,400.52C1003.78,401.183 1004.31,401.72 1004.98,401.72C1005.64,401.72 1006.18,401.183 1006.18,400.52Z" style="fill:none;stroke:#910000;stroke-width:0.77px;"/>
            <path d="M1009.58,396.741C1009.58,396.078 1009.04,395.541 1008.38,395.541C1007.72,395.541 1007.18,396.078 1007.18,396.741C1007.18,397.403 1007.72,397.941 1008.38,397.941C1009.04,397.941 1009.58,397.403 1009.58,396.741Z" style="fill:none;stroke:#910000;stroke-width:0.77px;"/>
            <path d="M1002.77,404.3C1002.77,403.637 1002.24,403.1 1001.58,403.1C1000.91,403.1 1000.38,403.637 1000.38,404.3C1000.38,404.962 1000.91,405.5 1001.58,405.5C1002.24,405.5 1002.77,404.962 1002.77,404.3Z" style="fill:none;stroke:#910000;stroke-width:0.77px;"/>
            <path d="M1003.15,408.079C1003.15,407.417 1002.62,406.879 1001.95,406.879C1001.29,406.879 1000.75,407.417 1000.75,408.079C1000.75,408.742 1001.29,409.279 1001.95,409.279C1002.62,409.279 1003.15,408.742 1003.15,408.079Z" style="fill:none;stroke:#910000;stroke-width:0.77px;"/>
            <path d="M998.995,404.3C998.995,403.637 998.458,403.1 997.795,403.1C997.133,403.1 996.595,403.637 996.595,404.3C996.595,404.962 997.133,405.5 997.795,405.5C998.458,405.5 998.995,404.962 998.995,404.3Z" style="fill:none;stroke:#910000;stroke-width:0.77px;"/>
            <path d="M999.373,408.079C999.373,407.417 998.836,406.879 998.173,406.879C997.511,406.879 996.973,407.417 996.973,408.079C996.973,408.742 997.511,409.279 998.173,409.279C998.836,409.279 999.373,408.742 999.373,408.079Z" style="fill:none;stroke:#910000;stroke-width:0.77px;"/>
            <path d="M995.216,404.3C995.216,403.637 994.678,403.1 994.016,403.1C993.353,403.1 992.816,403.637 992.816,404.3C992.816,404.962 993.353,405.5 994.016,405.5C994.678,405.5 995.216,404.962 995.216,404.3Z" style="fill:none;stroke:#910000;stroke-width:0.77px;"/>
            <path d="M995.594,408.079C995.594,407.417 995.056,406.879 994.394,406.879C993.731,406.879 993.194,407.417 993.194,408.079C993.194,408.742 993.731,409.279 994.394,409.279C995.056,409.279 995.594,408.742 995.594,408.079Z" style="fill:none;stroke:#910000;stroke-width:0.77px;"/>
            <path d="M1006.55,404.3C1006.55,403.637 1006.02,403.1 1005.35,403.1C1004.69,403.1 1004.15,403.637 1004.15,404.3C1004.15,404.962 1004.69,405.5 1005.35,405.5C1006.02,405.5 1006.55,404.962 1006.55,404.3Z" style="fill:none;stroke:#910000;stroke-width:0.77px;"/>
            <path d="M1006.93,408.079C1006.93,407.417 1006.39,406.879 1005.73,406.879C1005.07,406.879 1004.53,407.417 1004.53,408.079C1004.53,408.742 1005.07,409.279 1005.73,409.279C1006.39,409.279 1006.93,408.742 1006.93,408.079Z" style="fill:none;stroke:#910000;stroke-width:0.77px;"/>
            <path d="M1003.53,411.859C1003.53,411.196 1002.99,410.659 1002.33,410.659C1001.67,410.659 1001.13,411.196 1001.13,411.859C1001.13,412.521 1001.67,413.059 1002.33,413.059C1002.99,413.059 1003.53,412.521 1003.53,411.859Z" style="fill:none;stroke:#910000;stroke-width:0.77px;"/>
            <path d="M1003.91,415.638C1003.91,414.976 1003.37,414.438 1002.71,414.438C1002.05,414.438 1001.51,414.976 1001.51,415.638C1001.51,416.301 1002.05,416.838 1002.71,416.838C1003.37,416.838 1003.91,416.301 1003.91,415.638Z" style="fill:none;stroke:#910000;stroke-width:0.77px;"/>
            <path d="M999.751,411.859C999.751,411.196 999.213,410.659 998.551,410.659C997.889,410.659 997.351,411.196 997.351,411.859C997.351,412.521 997.889,413.059 998.551,413.059C999.213,413.059 999.751,412.521 999.751,411.859Z" style="fill:none;stroke:#910000;stroke-width:0.77px;"/>
            <path d="M1000.13,415.638C1000.13,414.976 999.591,414.438 998.929,414.438C998.267,414.438 997.729,414.976 997.729,415.638C997.729,416.301 998.267,416.838 998.929,416.838C999.591,416.838 1000.13,416.301 1000.13,415.638Z" style="fill:none;stroke:#910000;stroke-width:0.77px;"/>
            <path d="M995.972,411.859C995.972,411.196 995.434,410.659 994.772,410.659C994.109,410.659 993.572,411.196 993.572,411.859C993.572,412.521 994.109,413.059 994.772,413.059C995.434,413.059 995.972,412.521 995.972,411.859Z" style="fill:none;stroke:#910000;stroke-width:0.77px;"/>
            <path d="M996.35,415.638C996.35,414.976 995.812,414.438 995.15,414.438C994.487,414.438 993.95,414.976 993.95,415.638C993.95,416.301 994.487,416.838 995.15,416.838C995.812,416.838 996.35,416.301 996.35,415.638Z" style="fill:none;stroke:#910000;stroke-width:0.77px;"/>
            <path d="M1007.31,411.859C1007.31,411.196 1006.77,410.659 1006.11,410.659C1005.45,410.659 1004.91,411.196 1004.91,411.859C1004.91,412.521 1005.45,413.059 1006.11,413.059C1006.77,413.059 1007.31,412.521 1007.31,411.859Z" style="fill:none;stroke:#910000;stroke-width:0.77px;"/>
            <path d="M1007.69,415.638C1007.69,414.976 1007.15,414.438 1006.49,414.438C1005.83,414.438 1005.29,414.976 1005.29,415.638C1005.29,416.301 1005.83,416.838 1006.49,416.838C1007.15,416.838 1007.69,416.301 1007.69,415.638Z" style="fill:none;stroke:#910000;stroke-width:0.77px;"/>
            <path d="M1004.29,419.418C1004.29,418.756 1003.75,418.218 1003.09,418.218C1002.42,418.218 1001.89,418.756 1001.89,419.418C1001.89,420.08 1002.42,420.618 1003.09,420.618C1003.75,420.618 1004.29,420.08 1004.29,419.418Z" style="fill:none;stroke:#910000;stroke-width:0.77px;"/>
            <path d="M1004.67,423.197C1004.67,422.535 1004.13,421.997 1003.47,421.997C1002.8,421.997 1002.26,422.535 1002.26,423.197C1002.26,423.86 1002.8,424.397 1003.47,424.397C1004.13,424.397 1004.67,423.86 1004.67,423.197Z" style="fill:none;stroke:#910000;stroke-width:0.77px;"/>
            <path d="M1000.51,419.418C1000.51,418.756 999.969,418.218 999.307,418.218C998.645,418.218 998.107,418.756 998.107,419.418C998.107,420.08 998.645,420.618 999.307,420.618C999.969,420.618 1000.51,420.08 1000.51,419.418Z" style="fill:none;stroke:#910000;stroke-width:0.77px;"/>
            <path d="M1000.88,423.197C1000.88,422.535 1000.35,421.997 999.685,421.997C999.023,421.997 998.485,422.535 998.485,423.197C998.485,423.86 999.023,424.397 999.685,424.397C1000.35,424.397 1000.88,423.86 1000.88,423.197Z" style="fill:none;stroke:#910000;stroke-width:0.77px;"/>
            <path d="M996.728,419.418C996.728,418.756 996.19,418.218 995.528,418.218C994.865,418.218 994.328,418.756 994.328,419.418C994.328,420.08 994.865,420.618 995.528,420.618C996.19,420.618 996.728,420.08 996.728,419.418Z" style="fill:none;stroke:#910000;stroke-width:0.77px;"/>
            <path d="M997.106,423.197C997.106,422.535 996.568,421.997 995.906,421.997C995.243,421.997 994.706,422.535 994.706,423.197C994.706,423.86 995.243,424.397 995.906,424.397C996.568,424.397 997.106,423.86 997.106,423.197Z" style="fill:none;stroke:#910000;stroke-width:0.77px;"/>
            <path d="M1008.07,419.418C1008.07,418.756 1007.53,418.218 1006.87,418.218C1006.2,418.218 1005.67,418.756 1005.67,419.418C1005.67,420.08 1006.2,420.618 1006.87,420.618C1007.53,420.618 1008.07,420.08 1008.07,419.418Z" style="fill:none;stroke:#910000;stroke-width:0.77px;"/>
            <path d="M1008.44,423.197C1008.44,422.535 1007.91,421.997 1007.24,421.997C1006.58,421.997 1006.04,422.535 1006.04,423.197C1006.04,423.86 1006.58,424.397 1007.24,424.397C1007.91,424.397 1008.44,423.86 1008.44,423.197Z" style="fill:none;stroke:#910000;stroke-width:0.77px;"/>
            <path d="M1005.04,426.977C1005.04,426.315 1004.5,425.777 1003.84,425.777C1003.18,425.777 1002.64,426.315 1002.64,426.977C1002.64,427.639 1003.18,428.177 1003.84,428.177C1004.5,428.177 1005.04,427.639 1005.04,426.977Z" style="fill:none;stroke:#910000;stroke-width:0.77px;"/>
            <path d="M1005.42,430.756C1005.42,430.094 1004.88,429.556 1004.22,429.556C1003.56,429.556 1003.02,430.094 1003.02,430.756C1003.02,431.419 1003.56,431.956 1004.22,431.956C1004.88,431.956 1005.42,431.419 1005.42,430.756Z" style="fill:none;stroke:#910000;stroke-width:0.77px;"/>
            <path d="M1001.26,426.977C1001.26,426.315 1000.73,425.777 1000.06,425.777C999.401,425.777 998.863,426.315 998.863,426.977C998.863,427.639 999.401,428.177 1000.06,428.177C1000.73,428.177 1001.26,427.639 1001.26,426.977Z" style="fill:none;stroke:#910000;stroke-width:0.77px;"/>
            <path d="M1001.64,430.756C1001.64,430.094 1001.1,429.556 1000.44,429.556C999.779,429.556 999.241,430.094 999.241,430.756C999.241,431.419 999.779,431.956 1000.44,431.956C1001.1,431.956 1001.64,431.419 1001.64,430.756Z" style="fill:none;stroke:#910000;stroke-width:0.77px;"/>
            <path d="M997.483,426.977C997.483,426.315 996.946,425.777 996.283,425.777C995.621,425.777 995.083,426.315 995.083,426.977C995.083,427.639 995.621,428.177 996.283,428.177C996.946,428.177 997.483,427.639 997.483,426.977Z" style="fill:none;stroke:#910000;stroke-width:0.77px;"/>
            <path d="M997.861,430.756C997.861,430.094 997.324,429.556 996.661,429.556C995.999,429.556 995.461,430.094 995.461,430.756C995.461,431.419 995.999,431.956 996.661,431.956C997.324,431.956 997.861,431.419 997.861,430.756Z" style="fill:none;stroke:#910000;stroke-width:0.77px;"/>
            <path d="M1008.82,426.977C1008.82,426.315 1008.28,425.777 1007.62,425.777C1006.96,425.777 1006.42,426.315 1006.42,426.977C1006.42,427.639 1006.96,428.177 1007.62,428.177C1008.28,428.177 1008.82,427.639 1008.82,426.977Z" style="fill:none;stroke:#910000;stroke-width:0.77px;"/>
            <path d="M1009.2,430.756C1009.2,430.094 1008.66,429.556 1008,429.556C1007.34,429.556 1006.8,430.094 1006.8,430.756C1006.8,431.419 1007.34,431.956 1008,431.956C1008.66,431.956 1009.2,431.419 1009.2,430.756Z" style="fill:none;stroke:#910000;stroke-width:0.77px;"/>
            <path d="M989.48,436.982L1012.16,436.982" style="fill:none;stroke:#910000;stroke-width:0.77px;"/>
            <path d="M989.48,359.594L1012.16,359.594" style="fill:none;stroke:#910000;stroke-width:0.77px;"/>
            <path d="M1008.38,373.511C1008.21,373.359 1007.98,373.227 1007.74,373.168C1007.16,373.027 1005.24,373.168 1005.24,373.168" style="fill:none;stroke:#910000;stroke-width:0.77px;stroke-miterlimit:4;"/>
            <path d="M1007.74,373.168C1008.06,372.996 1008.7,372.651 1008.7,372.379C1008.7,372.106 1008.25,371.657 1007.74,371.533C1007.16,371.392 1005.24,371.533 1005.24,371.533" style="fill:none;stroke:#910000;stroke-width:0.77px;stroke-miterlimit:4;"/>
            <path d="M1007.74,371.533C1008.06,371.361 1008.7,371.016 1008.7,370.744C1008.7,370.471 1008.25,370.022 1007.74,369.898C1007.16,369.757 1005.24,369.898 1005.24,369.898" style="fill:none;stroke:#910000;stroke-width:0.77px;stroke-miterlimit:4;"/>
            <path d="M993.52,373.511C993.345,373.359 993.115,373.227 992.874,373.168C992.298,373.027 990.38,373.168 990.38,373.168" style="fill:none;stroke:#910000;stroke-width:0.77px;stroke-miterlimit:4;"/>
            <path d="M992.874,373.168C993.196,372.996 993.84,372.651 993.84,372.379C993.84,372.106 993.383,371.657 992.874,371.533C992.298,371.392 990.38,371.533 990.38,371.533" style="fill:none;stroke:#910000;stroke-width:0.77px;stroke-miterlimit:4;"/>
            <path d="M992.874,371.533C993.196,371.361 993.84,371.016 993.84,370.744C993.84,370.471 993.383,370.022 992.874,369.898C992.298,369.757 990.38,369.898 990.38,369.898" style="fill:none;stroke:#910000;stroke-width:0.77px;stroke-miterlimit:4;"/>
            <path d="M1008.38,368.643C1008.21,368.492 1007.98,368.36 1007.74,368.301C1007.16,368.16 1005.24,368.301 1005.24,368.301" style="fill:none;stroke:#910000;stroke-width:0.77px;stroke-miterlimit:4;"/>
            <path d="M1007.74,368.301C1008.06,368.128 1008.7,367.784 1008.7,367.511C1008.7,367.239 1008.25,366.79 1007.74,366.666C1007.16,366.525 1005.24,366.666 1005.24,366.666" style="fill:none;stroke:#910000;stroke-width:0.77px;stroke-miterlimit:4;"/>
            <path d="M1007.74,366.666C1008.06,366.493 1008.7,366.149 1008.7,365.876C1008.7,365.604 1008.25,365.155 1007.74,365.03C1007.16,364.889 1005.24,365.03 1005.24,365.03" style="fill:none;stroke:#910000;stroke-width:0.77px;stroke-miterlimit:4;"/>
            <path d="M993.52,368.643C993.345,368.492 993.115,368.36 992.874,368.301C992.298,368.16 990.38,368.301 990.38,368.301" style="fill:none;stroke:#910000;stroke-width:0.77px;stroke-miterlimit:4;"/>
            <path d="M992.874,368.301C993.196,368.128 993.84,367.784 993.84,367.511C993.84,367.239 993.383,366.79 992.874,366.666C992.298,366.525 990.38,366.666 990.38,366.666" style="fill:none;stroke:#910000;stroke-width:0.77px;stroke-miterlimit:4;"/>
            <path d="M992.874,366.666C993.196,366.493 993.84,366.149 993.84,365.876C993.84,365.604 993.383,365.155 992.874,365.03C992.298,364.889 990.38,365.03 990.38,365.03" style="fill:none;stroke:#910000;stroke-width:0.77px;stroke-miterlimit:4;"/>
            <path d="M1010.54,379.581C1010.81,379.069 1011.35,378.043 1011.23,377.51C1011.1,376.976 1010.36,376.174 1009.79,376.38C1009.15,376.607 1008.19,378.337 1007.43,378.871C1006.81,379.313 1005.24,379.581 1005.24,379.581L1005.24,376.38" style="fill:none;stroke:#910000;stroke-width:0.77px;"/>
            <path d="M995.675,379.581C995.947,379.069 996.49,378.043 996.365,377.51C996.239,376.976 995.497,376.174 994.922,376.38C994.29,376.607 993.326,378.337 992.569,378.871C991.942,379.313 990.38,379.581 990.38,379.581L990.38,376.38" style="fill:none;stroke:#910000;stroke-width:0.77px;"/>
        </g>
        <g>
            <path d="M521.626,779.328L525.229,779.328" style="fill:none;stroke:#910000;stroke-width:0.77px;"/>
            <path d="M523.427,777.518L523.427,781.137" style="fill:none;stroke:#910000;stroke-width:0.77px;"/>
            <path d="M521.626,764.22L525.229,764.22" style="fill:none;stroke:#910000;stroke-width:0.77px;"/>
            <path d="M513.509,771.713L515.909,771.713" style="fill:none;stroke:#910000;stroke-width:0.77px;"/>
            <path d="M513.509,764.22L515.909,764.22" style="fill:none;stroke:#910000;stroke-width:0.77px;"/>
            <path d="M513.509,779.339L515.909,779.339" style="fill:none;stroke:#910000;stroke-width:0.77px;"/>
            <path d="M491.448,781.452L491.448,779.87" style="fill:none;stroke:#910000;stroke-width:0.77px;"/>
            <path d="M491.448,763.678L491.448,762.096" style="fill:none;stroke:#910000;stroke-width:0.77px;"/>
            <circle cx="510.346" cy="771.78" r="1.2" style="fill:none;stroke:#910000;stroke-width:0.77px;"/>
            <circle cx="506.566" cy="772.157" r="1.2" style="fill:none;stroke:#910000;stroke-width:0.77px;"/>
            <circle cx="510.346" cy="768" r="1.2" style="fill:none;stroke:#910000;stroke-width:0.77px;"/>
            <circle cx="506.566" cy="768.378" r="1.2" style="fill:none;stroke:#910000;stroke-width:0.77px;"/>
            <circle cx="510.346" cy="764.22" r="1.2" style="fill:none;stroke:#910000;stroke-width:0.77px;"/>
            <circle cx="506.566" cy="764.598" r="1.2" style="fill:none;stroke:#910000;stroke-width:0.77px;"/>
            <circle cx="510.346" cy="775.559" r="1.2" style="fill:none;stroke:#910000;stroke-width:0.77px;"/>
            <circle cx="506.566" cy="775.937" r="1.2" style="fill:none;stroke:#910000;stroke-width:0.77px;"/>
            <circle cx="510.346" cy="779.339" r="1.2" style="fill:none;stroke:#910000;stroke-width:0.77px;"/>
            <circle cx="502.787" cy="772.535" r="1.2" style="fill:none;stroke:#910000;stroke-width:0.77px;"/>
            <circle cx="499.007" cy="772.913" r="1.2" style="fill:none;stroke:#910000;stroke-width:0.77px;"/>
            <circle cx="502.787" cy="768.756" r="1.2" style="fill:none;stroke:#910000;stroke-width:0.77px;"/>
            <circle cx="499.007" cy="769.134" r="1.2" style="fill:none;stroke:#910000;stroke-width:0.77px;"/>
            <circle cx="502.787" cy="764.976" r="1.2" style="fill:none;stroke:#910000;stroke-width:0.77px;"/>
            <circle cx="499.007" cy="765.354" r="1.2" style="fill:none;stroke:#910000;stroke-width:0.77px;"/>
            <circle cx="502.787" cy="776.315" r="1.2" style="fill:none;stroke:#910000;stroke-width:0.77px;"/>
            <circle cx="499.007" cy="776.693" r="1.2" style="fill:none;stroke:#910000;stroke-width:0.77px;"/>
            <circle cx="495.228" cy="773.291" r="1.2" style="fill:none;stroke:#910000;stroke-width:0.77px;"/>
            <circle cx="491.448" cy="773.669" r="1.2" style="fill:none;stroke:#910000;stroke-width:0.77px;"/>
            <circle cx="495.228" cy="769.512" r="1.2" style="fill:none;stroke:#910000;stroke-width:0.77px;"/>
            <circle cx="491.448" cy="769.89" r="1.2" style="fill:none;stroke:#910000;stroke-width:0.77px;"/>
            <circle cx="495.228" cy="765.732" r="1.2" style="fill:none;stroke:#910000;stroke-width:0.77px;"/>
            <circle cx="491.448" cy="766.11" r="1.2" style="fill:none;stroke:#910000;stroke-width:0.77px;"/>
            <circle cx="495.228" cy="777.071" r="1.2" style="fill:none;stroke:#910000;stroke-width:0.77px;"/>
            <circle cx="491.448" cy="777.449" r="1.2" style="fill:none;stroke:#910000;stroke-width:0.77px;"/>
            <circle cx="487.669" cy="774.047" r="1.2" style="fill:none;stroke:#910000;stroke-width:0.77px;"/>
            <circle cx="483.889" cy="774.425" r="1.2" style="fill:none;stroke:#910000;stroke-width:0.77px;"/>
            <circle cx="487.669" cy="770.268" r="1.2" style="fill:none;stroke:#910000;stroke-width:0.77px;"/>
            <circle cx="483.889" cy="770.646" r="1.2" style="fill:none;stroke:#910000;stroke-width:0.77px;"/>
            <circle cx="487.669" cy="766.488" r="1.2" style="fill:none;stroke:#910000;stroke-width:0.77px;"/>
            <circle cx="483.889" cy="766.866" r="1.2" style="fill:none;stroke:#910000;stroke-width:0.77px;"/>
            <circle cx="487.669" cy="777.827" r="1.2" style="fill:none;stroke:#910000;stroke-width:0.77px;"/>
            <circle cx="483.889" cy="778.205" r="1.2" style="fill:none;stroke:#910000;stroke-width:0.77px;"/>
            <circle cx="480.11" cy="774.803" r="1.2" style="fill:none;stroke:#910000;stroke-width:0.77px;"/>
            <circle cx="476.33" cy="775.181" r="1.2" style="fill:none;stroke:#910000;stroke-width:0.77px;"/>
            <circle cx="480.11" cy="771.024" r="1.2" style="fill:none;stroke:#910000;stroke-width:0.77px;"/>
            <circle cx="476.33" cy="771.402" r="1.2" style="fill:none;stroke:#910000;stroke-width:0.77px;"/>
            <circle cx="480.11" cy="767.244" r="1.2" style="fill:none;stroke:#910000;stroke-width:0.77px;"/>
            <circle cx="476.33" cy="767.622" r="1.2" style="fill:none;stroke:#910000;stroke-width:0.77px;"/>
            <circle cx="480.11" cy="778.583" r="1.2" style="fill:none;stroke:#910000;stroke-width:0.77px;"/>
            <circle cx="476.33" cy="778.961" r="1.2" style="fill:none;stroke:#910000;stroke-width:0.77px;"/>
            <path d="M470.104,760.441L470.104,783.118" style="fill:none;stroke:#910000;stroke-width:0.77px;"/>
            <path d="M547.492,760.441L547.492,783.118" style="fill:none;stroke:#910000;stroke-width:0.77px;"/>
            <path d="M533.576,779.344C533.727,779.169 533.859,778.939 533.918,778.698C534.059,778.122 533.918,776.204 533.918,776.204" style="fill:none;stroke:#910000;stroke-width:0.77px;stroke-miterlimit:4;"/>
            <path d="M533.918,778.698C534.091,779.02 534.435,779.664 534.708,779.664C534.98,779.664 535.429,779.207 535.554,778.698C535.694,778.122 535.554,776.204 535.554,776.204" style="fill:none;stroke:#910000;stroke-width:0.77px;stroke-miterlimit:4;"/>
            <path d="M535.554,778.698C535.726,779.02 536.07,779.664 536.343,779.664C536.615,779.664 537.064,779.207 537.189,778.698C537.33,778.122 537.189,776.204 537.189,776.204" style="fill:none;stroke:#910000;stroke-width:0.77px;stroke-miterlimit:4;"/>
            <path d="M533.576,764.48C533.727,764.305 533.859,764.076 533.918,763.835C534.059,763.258 533.918,761.34 533.918,761.34" style="fill:none;stroke:#910000;stroke-width:0.77px;stroke-miterlimit:4;"/>
            <path d="M533.918,763.835C534.091,764.157 534.435,764.8 534.708,764.8C534.98,764.8 535.429,764.343 535.554,763.835C535.694,763.258 535.554,761.34 535.554,761.34" style="fill:none;stroke:#910000;stroke-width:0.77px;stroke-miterlimit:4;"/>
            <path d="M535.554,763.835C535.726,764.157 536.07,764.8 536.343,764.8C536.615,764.8 537.064,764.343 537.189,763.835C537.33,763.258 537.189,761.34 537.189,761.34" style="fill:none;stroke:#910000;stroke-width:0.77px;stroke-miterlimit:4;"/>
            <path d="M538.444,779.344C538.595,779.169 538.727,778.939 538.786,778.698C538.927,778.122 538.786,776.204 538.786,776.204" style="fill:none;stroke:#910000;stroke-width:0.77px;stroke-miterlimit:4;"/>
            <path d="M538.786,778.698C538.958,779.02 539.303,779.664 539.575,779.664C539.848,779.664 540.297,779.207 540.421,778.698C540.562,778.122 540.421,776.204 540.421,776.204" style="fill:none;stroke:#910000;stroke-width:0.77px;stroke-miterlimit:4;"/>
            <path d="M540.421,778.698C540.593,779.02 540.938,779.664 541.21,779.664C541.483,779.664 541.932,779.207 542.056,778.698C542.197,778.122 542.056,776.204 542.056,776.204" style="fill:none;stroke:#910000;stroke-width:0.77px;stroke-miterlimit:4;"/>
            <path d="M538.444,764.48C538.595,764.305 538.727,764.076 538.786,763.835C538.927,763.258 538.786,761.34 538.786,761.34" style="fill:none;stroke:#910000;stroke-width:0.77px;stroke-miterlimit:4;"/>
            <path d="M538.786,763.835C538.958,764.157 539.303,764.8 539.575,764.8C539.848,764.8 540.297,764.343 540.421,763.835C540.562,763.258 540.421,761.34 540.421,761.34" style="fill:none;stroke:#910000;stroke-width:0.77px;stroke-miterlimit:4;"/>
            <path d="M540.421,763.835C540.593,764.157 540.938,764.8 541.21,764.8C541.483,764.8 541.932,764.343 542.056,763.835C542.197,763.258 542.056,761.34 542.056,761.34" style="fill:none;stroke:#910000;stroke-width:0.77px;stroke-miterlimit:4;"/>
            <path d="M527.505,781.5C528.018,781.771 529.043,782.315 529.577,782.189C530.11,782.063 530.913,781.321 530.707,780.746C530.48,780.114 528.75,779.15 528.216,778.393C527.774,777.766 527.505,776.204 527.505,776.204L530.707,776.204" style="fill:none;stroke:#910000;stroke-width:0.77px;"/>
            <path d="M527.505,766.636C528.018,766.908 529.043,767.451 529.577,767.326C530.11,767.2 530.913,766.458 530.707,765.883C530.48,765.25 528.75,764.287 528.216,763.53C527.774,762.902 527.505,761.34 527.505,761.34L530.707,761.34" style="fill:none;stroke:#910000;stroke-width:0.77px;"/>
        </g>
        <path d="M37.795,47.395L28.195,37.795L37.795,28.195L47.395,37.795L37.795,47.395Z" style="fill-opacity:0.16;stroke:#900000;stroke-width:0.77px;"/>
        <g>
            <path d="M194.578,34.915L197.458,37.795L194.578,40.675L191.698,37.795L194.578,34.915Z" style="fill-opacity:0.16;stroke:#900000;stroke-width:0.77px;"/>
            <path d="M210.898,31.795L220.978,37.795L210.898,43.795L200.818,37.795L210.898,31.795Z" style="fill-opacity:0.16;stroke:#900000;stroke-width:0.77px;"/>
            <path d="M227.218,34.915L230.098,37.795L227.218,40.675L224.338,37.795L227.218,34.915Z" style="fill-opacity:0.16;stroke:#900000;stroke-width:0.77px;"/>
            <circle cx="233.938" cy="37.795" r="0.96" style="fill-opacity:0.16;stroke:#900000;stroke-width:0.77px;"/>
            <circle cx="187.858" cy="37.795" r="0.96" style="fill-opacity:0.16;stroke:#900000;stroke-width:0.77px;"/>
        </g>
        <path d="M55.234,34.915L58.114,37.795L55.234,40.675L52.354,37.795L55.234,34.915Z" style="fill-opacity:0.16;stroke:#900000;stroke-width:0.77px;"/>
        <circle cx="61.954" cy="37.795" r="0.96" style="fill-opacity:0.16;stroke:#900000;stroke-width:0.77px;"/>
        <g>
            <path d="M34.915,183.058L37.795,180.178L40.675,183.058L37.795,185.938L34.915,183.058Z" style="fill-opacity:0.16;stroke:#900000;stroke-width:0.77px;"/>
            <path d="M31.795,166.738L37.795,156.658L43.795,166.738L37.795,176.818L31.795,166.738Z" style="fill-opacity:0.16;stroke:#900000;stroke-width:0.77px;"/>
            <path d="M34.915,150.418L37.795,147.538L40.675,150.418L37.795,153.298L34.915,150.418Z" style="fill-opacity:0.16;stroke:#900000;stroke-width:0.77px;"/>
            <path d="M38.755,143.698C38.755,144.227 38.325,144.658 37.795,144.658C37.265,144.658 36.835,144.227 36.835,143.698C36.835,143.168 37.265,142.738 37.795,142.738C38.325,142.738 38.755,143.168 38.755,143.698Z" style="fill-opacity:0.16;stroke:#900000;stroke-width:0.77px;"/>
            <path d="M38.755,189.778C38.755,190.307 38.325,190.738 37.795,190.738C37.265,190.738 36.835,190.307 36.835,189.778C36.835,189.248 37.265,188.818 37.795,188.818C38.325,188.818 38.755,189.248 38.755,189.778Z" style="fill-opacity:0.16;stroke:#900000;stroke-width:0.77px;"/>
        </g>
        <path d="M34.915,53.783L37.795,50.903L40.675,53.783L37.795,56.663L34.915,53.783Z" style="fill-opacity:0.16;stroke:#900000;stroke-width:0.77px;"/>
        <path d="M38.755,60.503C38.755,61.033 38.325,61.463 37.795,61.463C37.265,61.463 36.835,61.033 36.835,60.503C36.835,59.973 37.265,59.543 37.795,59.543C38.325,59.543 38.755,59.973 38.755,60.503Z" style="fill-opacity:0.16;stroke:#900000;stroke-width:0.77px;"/>
        <g>
            <path d="M34.915,615.058L37.795,612.178L40.675,615.058L37.795,617.938L34.915,615.058Z" style="fill-opacity:0.16;stroke:#900000;stroke-width:0.77px;"/>
            <path d="M31.795,598.738L37.795,588.658L43.795,598.738L37.795,608.818L31.795,598.738Z" style="fill-opacity:0.16;stroke:#900000;stroke-width:0.77px;"/>
            <path d="M34.915,582.418L37.795,579.538L40.675,582.418L37.795,585.298L34.915,582.418Z" style="fill-opacity:0.16;stroke:#900000;stroke-width:0.77px;"/>
            <path d="M38.755,575.698C38.755,576.227 38.325,576.658 37.795,576.658C37.265,576.658 36.835,576.227 36.835,575.698C36.835,575.168 37.265,574.738 37.795,574.738C38.325,574.738 38.755,575.168 38.755,575.698Z" style="fill-opacity:0.16;stroke:#900000;stroke-width:0.77px;"/>
            <path d="M38.755,621.778C38.755,622.307 38.325,622.738 37.795,622.738C37.265,622.738 36.835,622.307 36.835,621.778C36.835,621.248 37.265,620.818 37.795,620.818C38.325,620.818 38.755,621.248 38.755,621.778Z" style="fill-opacity:0.16;stroke:#900000;stroke-width:0.77px;"/>
        </g>
        <g>
            <path d="M34.915,411.538L37.795,408.658L40.675,411.538L37.795,414.418L34.915,411.538Z" style="fill-opacity:0.16;stroke:#900000;stroke-width:0.77px;"/>
            <path d="M31.795,395.218L37.795,385.138L43.795,395.218L37.795,405.298L31.795,395.218Z" style="fill-opacity:0.16;stroke:#900000;stroke-width:0.77px;"/>
            <path d="M34.915,378.898L37.795,376.018L40.675,378.898L37.795,381.778L34.915,378.898Z" style="fill-opacity:0.16;stroke:#900000;stroke-width:0.77px;"/>
            <path d="M38.755,372.178C38.755,372.707 38.325,373.138 37.795,373.138C37.265,373.138 36.835,372.707 36.835,372.178C36.835,371.648 37.265,371.218 37.795,371.218C38.325,371.218 38.755,371.648 38.755,372.178Z" style="fill-opacity:0.16;stroke:#900000;stroke-width:0.77px;"/>
            <path d="M38.755,418.258C38.755,418.787 38.325,419.218 37.795,419.218C37.265,419.218 36.835,418.787 36.835,418.258C36.835,417.728 37.265,417.298 37.795,417.298C38.325,417.298 38.755,417.728 38.755,418.258Z" style="fill-opacity:0.16;stroke:#900000;stroke-width:0.77px;"/>
        </g>
        <g>
            <path d="M770.578,34.915L773.458,37.795L770.578,40.675L767.698,37.795L770.578,34.915Z" style="fill-opacity:0.16;stroke:#900000;stroke-width:0.77px;"/>
            <path d="M786.898,31.795L796.978,37.795L786.898,43.795L776.818,37.795L786.898,31.795Z" style="fill-opacity:0.16;stroke:#900000;stroke-width:0.77px;"/>
            <path d="M803.218,34.915L806.098,37.795L803.218,40.675L800.338,37.795L803.218,34.915Z" style="fill-opacity:0.16;stroke:#900000;stroke-width:0.77px;"/>
            <circle cx="809.938" cy="37.795" r="0.96" style="fill-opacity:0.16;stroke:#900000;stroke-width:0.77px;"/>
            <circle cx="763.858" cy="37.795" r="0.96" style="fill-opacity:0.16;stroke:#900000;stroke-width:0.77px;"/>
        </g>
        <g>
            <path d="M493.916,34.915L496.796,37.795L493.916,40.675L491.036,37.795L493.916,34.915Z" style="fill-opacity:0.16;stroke:#900000;stroke-width:0.77px;"/>
            <path d="M510.236,31.795L520.316,37.795L510.236,43.795L500.156,37.795L510.236,31.795Z" style="fill-opacity:0.16;stroke:#900000;stroke-width:0.77px;"/>
            <path d="M526.556,34.915L529.436,37.795L526.556,40.675L523.676,37.795L526.556,34.915Z" style="fill-opacity:0.16;stroke:#900000;stroke-width:0.77px;"/>
            <circle cx="533.276" cy="37.795" r="0.96" style="fill-opacity:0.16;stroke:#900000;stroke-width:0.77px;"/>
            <circle cx="487.196" cy="37.795" r="0.96" style="fill-opacity:0.16;stroke:#900000;stroke-width:0.77px;"/>
        </g>
        <circle cx="294.898" cy="245.938" r="60" style="fill:none;stroke:#a00;stroke-width:0.77px;"/>
        <circle cx="720.178" cy="479.218" r="60" style="fill:none;stroke:#a00;stroke-width:0.77px;"/>
    </g>
</svg>
