<?xml version="1.0" encoding="UTF-8" standalone="no"?>
<!DOCTYPE svg PUBLIC "-//W3C//DTD SVG 1.1//EN" "http://www.w3.org/Graphics/SVG/1.1/DTD/svg11.dtd">
<svg width="1056px" height="816px" version="1.1" xmlns="http://www.w3.org/2000/svg" xmlns:xlink="http://www.w3.org/1999/xlink" xml:space="preserve" xmlns:serif="http://www.serif.com/" style="fill-rule:evenodd;clip-rule:evenodd;stroke-linecap:round;stroke-linejoin:round;stroke-miterlimit:1.5;">
    <g id="Border">
        <rect id="Black-border-outline" serif:id="Black border outline" x="34.016" y="44.074" width="966.832" height="737.88" style="fill:#fff;fill-opacity:0.4;stroke:#140000;stroke-width:0.32px;"/>
    </g>
    <g id="Canaries">
        <path d="M940.706,713.592L946.706,713.592C946.706,713.592 944.12,707.874 945.32,706.852C946.52,705.831 952.674,706.342 953.905,707.465C955.136,708.588 952.706,713.592 952.706,713.592L958.706,713.592L958.706,743.592L928.706,743.592L928.706,737.592C928.706,737.592 933.71,740.022 934.833,738.791C935.956,737.56 936.467,731.406 935.445,730.206C934.424,729.006 928.706,731.592 928.706,731.592L928.706,725.592L940.706,713.592Z" style="fill:none;stroke:#0ff;stroke-width:0.77px;"/>
        <path d="M928.706,104.216L928.706,98.216C928.706,98.216 922.988,100.801 921.967,99.601C920.946,98.401 921.456,92.247 922.579,91.017C923.703,89.786 928.706,92.216 928.706,92.216L928.706,86.216L958.706,86.216L958.706,116.216L952.706,116.216C952.706,116.216 955.136,111.212 953.905,110.089C952.674,108.966 946.52,108.455 945.32,109.476C944.12,110.497 946.706,116.216 946.706,116.216L940.706,116.216L928.706,104.216Z" style="fill:none;stroke:#f00;stroke-width:0.77px;"/>
        <path d="M90.378,116.216L84.378,116.216C84.378,116.216 86.963,121.934 85.764,122.955C84.564,123.976 78.41,123.465 77.179,122.342C75.948,121.219 78.378,116.216 78.378,116.216L72.378,116.216L72.378,86.216L102.378,86.216L102.378,92.216C102.378,92.216 97.374,89.786 96.251,91.017C95.128,92.247 94.617,98.401 95.638,99.601C96.66,100.801 102.378,98.216 102.378,98.216L102.378,104.216L90.378,116.216Z" style="fill:none;stroke:#0ff;stroke-width:0.77px;"/>
        <path d="M102.378,725.592L102.378,731.592C102.378,731.592 108.096,729.006 109.117,730.206C110.138,731.406 109.628,737.56 108.504,738.791C107.381,740.022 102.378,737.592 102.378,737.592L102.378,743.592L72.378,743.592L72.378,713.592L78.378,713.592C78.378,713.592 75.948,718.595 77.179,719.718C78.41,720.842 84.564,721.352 85.764,720.331C86.963,719.31 84.378,713.592 84.378,713.592L90.378,713.592L102.378,725.592Z" style="fill:none;stroke:#f00;stroke-width:0.77px;"/>
    </g>
    <g id="Pieces">
        <path d="M235.842,103.769L282.252,103.769C281.08,109.125 281.451,115.623 282.171,122.546C282.499,125.705 289.767,117.845 292.325,119.785C295.292,122.036 296.306,128.44 294.04,131.549C292.01,134.334 282.9,128.953 283.261,132.221C283.924,138.238 284.449,144.324 284.128,150.055C276.172,151.321 268.888,151.979 261.855,152.243C258.837,152.356 264.493,159.847 262.071,162.165C259.448,164.676 253.655,164.731 251.364,162.285C249.253,160.031 255.866,152.396 252.907,152.38C247.249,152.349 241.639,152.114 235.842,151.792L235.842,103.769" style="fill:none;stroke:#8c0000;stroke-width:1.96px;"/>
        <path d="M235.3,167.436C241.096,167.759 246.707,167.994 252.365,168.024C255.323,168.04 248.711,175.675 250.822,177.929C253.113,180.375 258.906,180.32 261.528,177.809C263.95,175.491 258.295,168 261.313,167.887C268.346,167.624 275.63,166.965 283.586,165.699C283.228,172.088 281.719,178.4 280.377,184.822C279.745,187.847 288.752,182.754 290.575,185.327C292.63,188.227 291.558,194.258 288.597,196.423C285.961,198.35 279.149,190.896 278.728,193.989C277.977,199.51 277.781,205.172 278.922,211.086C272.816,210.275 267.627,210.596 262.839,211.295C259.842,211.732 267.691,217.661 266.257,219.786C264.441,222.478 258.589,223.796 255.573,222.066C253.067,220.629 257.002,212.317 254.192,212.864C248.174,214.035 242.293,215.034 235.3,214.04L235.3,167.436" style="fill:none;stroke:#8c0000;stroke-width:1.96px;"/>
        <path d="M235.545,230.785C242.537,231.779 248.419,230.78 254.436,229.609C257.246,229.062 253.312,237.374 255.817,238.811C258.834,240.541 264.685,239.223 266.502,236.531C267.935,234.406 260.086,228.477 263.083,228.04C267.872,227.342 273.06,227.02 279.167,227.831C280.319,233.802 280.818,239.853 281.35,246.425C281.582,249.283 288.426,241.875 290.757,243.629C293.424,245.636 294.176,251.528 292.017,254.453C290.062,257.101 281.819,252.239 282.12,255.33C282.797,262.304 283.793,269.962 285.756,278.722C278.856,280.213 272.289,280.442 265.515,280.287C262.576,280.22 267.113,287.592 264.721,289.295C262.001,291.231 256.678,290.374 254.631,288.035C253.039,286.216 259.598,280.081 256.536,279.942C250.053,279.646 243.196,279.349 235.545,279.734L235.545,230.785" style="fill:none;stroke:#8c0000;stroke-width:1.96px;"/>
        <path d="M236.046,295.252C243.697,294.868 250.554,295.165 257.038,295.46C260.1,295.6 253.541,301.734 255.133,303.554C257.179,305.892 262.502,306.75 265.223,304.813C267.614,303.111 263.078,295.739 266.017,295.806C272.791,295.961 279.358,295.732 286.258,294.241C287.749,300.897 287.773,306.745 287.15,312.519C286.844,315.358 295.007,311.329 296.126,313.544C297.628,316.518 295.725,322.533 293.159,324.414C291.583,325.57 286.382,318.18 285.861,321.071C284.663,327.721 283.155,334.738 282.526,343.186C275.258,342.092 268.865,340.831 262.673,339.834C259.723,339.359 266.695,333.677 265.127,331.44C263.196,328.686 257.76,327.02 254.95,328.819C252.344,330.487 256.818,338.944 253.886,338.636C248.215,338.039 242.444,337.841 236.046,338.378L236.046,295.252" style="fill:none;stroke:#8c1200;stroke-width:1.96px;"/>
        <path d="M234.381,353.726C240.779,353.189 246.55,353.387 252.221,353.984C255.152,354.293 250.678,345.836 253.284,344.167C256.095,342.369 261.531,344.035 263.461,346.788C265.03,349.026 258.057,354.708 261.008,355.183C267.2,356.179 273.593,357.44 280.86,358.535C280.517,363.147 281.315,367.807 282.337,372.614C282.974,375.607 274.507,370.846 272.693,373.382C270.713,376.15 271.517,381.585 274.416,383.686C277.201,385.705 283.699,378.657 284.289,381.788C285.333,387.324 285.958,393.114 284.943,399.29C276.239,398.765 269.163,400.089 262.484,401.612C259.61,402.268 267.099,407.907 265.667,409.936C263.909,412.428 258.374,413.173 255.453,411.579C253.201,410.349 256.81,402.96 253.985,403.557C247.891,404.847 241.684,405.696 234.381,404.784L234.381,353.726" style="fill:none;stroke:#8c1200;stroke-width:1.96px;"/>
        <path d="M235.26,421.455C242.563,422.366 248.77,421.517 254.864,420.228C257.689,419.63 254.08,427.019 256.332,428.249C259.253,429.844 264.788,429.098 266.546,426.607C267.977,424.577 260.489,418.938 263.363,418.283C270.042,416.76 277.118,415.436 285.821,415.96C284.672,422.95 283.42,428.921 282.384,434.493C281.832,437.458 288.979,433.329 290.248,435.412C291.994,438.275 291.688,444.015 289.366,445.947C287.573,447.44 281.342,440.31 280.961,443.143C279.947,450.68 279.705,458.082 281.138,467.112C274.819,468.062 269.196,467.98 263.837,467.678C260.818,467.508 266.964,460.651 265.118,458.917C262.802,456.741 257.113,456.928 254.572,458.975C252.702,460.482 257.882,467.269 254.953,467.106C248.619,466.753 242.315,466.756 235.26,468.588L235.26,421.455" style="fill:none;stroke:#8b2900;stroke-width:1.96px;"/>
        <path d="M233.663,485.443C240.718,483.611 247.022,483.607 253.357,483.96C256.286,484.123 251.105,477.336 252.976,475.83C255.517,473.782 261.205,473.595 263.521,475.771C265.367,477.505 259.221,484.363 262.24,484.532C267.6,484.834 273.223,484.917 279.542,483.966C280.423,489.519 280.681,496.262 280.634,503.295C280.612,506.546 272.169,499.425 270.037,501.642C267.435,504.349 267.635,511.246 270.227,514.121C272.265,516.382 280.524,509.858 280.403,513.144C280.171,519.438 279.815,525.632 279.555,531.101C275.334,530.926 270.496,530.193 265.346,529.369C262.286,528.88 268.014,537.337 265.906,538.912C263.079,541.024 256.54,540.571 254.038,537.818C251.991,535.567 259.115,528.358 255.898,527.903C248.471,526.852 240.797,526.153 233.663,527.014L233.663,485.443" style="fill:none;stroke:#8b2900;stroke-width:1.96px;"/>
        <path d="M233.987,544.351C241.121,543.49 248.795,544.189 256.222,545.24C259.439,545.695 252.315,552.904 254.362,555.156C256.864,557.908 263.403,558.362 266.23,556.249C268.338,554.674 262.61,546.217 265.67,546.706C270.82,547.53 275.658,548.263 279.879,548.438C279.551,555.349 280.275,561.663 281.087,568.279C281.442,571.175 273.271,565.403 271.494,567.542C269.429,570.029 270.169,575.807 272.826,578.226C275.116,580.31 281.813,574.129 282.12,577.216C282.599,582.029 282.922,587.166 282.781,592.912C276.598,592.592 270.69,592.877 264.644,593.321C261.744,593.534 267.258,600.237 265.162,602.251C262.683,604.633 257.068,604.906 254.728,602.848C252.842,601.189 258.812,593.783 255.803,594.02C249.086,594.549 241.984,595.015 233.987,594.869L233.987,544.351" style="fill:none;stroke:#8b2900;stroke-width:1.96px;"/>
        <path d="M233.981,612.071C241.978,612.216 249.08,611.75 255.797,611.221C258.807,610.985 252.836,618.391 254.722,620.049C257.062,622.107 262.677,621.835 265.156,619.453C267.252,617.439 261.738,610.735 264.638,610.522C270.684,610.078 276.592,609.793 282.775,610.114C282.654,615.042 282.591,620.476 282.568,626.234C282.556,629.264 274.742,622.39 272.814,624.349C270.337,626.867 270.219,633.502 272.656,636.306C274.604,638.548 282.555,632.384 282.562,635.566C282.581,643.451 282.653,651.721 282.74,659.969C277.192,659.1 271.323,658.831 265.461,658.904C262.2,658.944 268.852,667.209 266.494,669.442C263.94,671.86 257.934,671.111 255.246,668.576C253.062,666.516 258.941,659.091 255.74,659.3C247.859,659.815 240.328,660.705 233.981,661.314L233.981,612.071" style="fill:none;stroke:#8a3c00;stroke-width:1.96px;"/>
        <path d="M236.218,676.055C242.564,675.446 250.095,674.555 257.976,674.041C261.177,673.832 255.298,681.256 257.482,683.316C260.171,685.851 266.177,686.6 268.73,684.182C271.089,681.949 264.436,673.685 267.697,673.644C273.56,673.571 279.428,673.841 284.977,674.71C285.04,680.678 285.751,686.35 286.35,692.077C286.661,695.052 292.394,689.367 294.58,691.216C297.239,693.466 298.859,698.607 296.985,701.076C295.173,703.465 286.942,698.041 287.086,701.095C287.381,707.315 287.11,713.802 285.373,720.97L236.218,720.97L236.218,676.055" style="fill:none;stroke:#8a3c00;stroke-width:1.96px;"/>
        <path d="M298.404,103.125L349.081,103.125C348.076,110.792 346.867,116.693 345.94,122.247C345.47,125.062 339.361,119.137 337.377,120.979C335.006,123.18 334.598,128.643 336.456,131.05C337.909,132.933 345.073,127.787 344.811,130.608C344.351,135.564 344.31,140.815 345.031,147.361C336.902,149.202 330.105,149.294 323.673,149.071C320.708,148.969 326.176,156.7 323.976,158.465C321.334,160.584 315.369,159.989 313.104,157.549C311.318,155.624 317.821,148.799 314.917,148.703C310.215,148.547 305.47,148.585 300.279,149.411C300.601,143.68 300.076,137.594 299.412,131.577C299.052,128.309 308.161,133.69 310.191,130.905C312.457,127.796 311.444,121.392 308.476,119.141C305.919,117.201 298.651,125.061 298.322,121.902C297.603,114.979 297.232,108.481 298.404,103.125" style="fill:none;stroke:#8c0000;stroke-width:1.96px;"/>
        <path d="M300.152,164.479C305.342,163.653 310.088,163.615 314.789,163.771C317.693,163.867 311.191,170.692 312.977,172.617C315.242,175.057 321.207,175.652 323.849,173.533C326.049,171.768 320.58,164.036 323.545,164.139C329.977,164.362 336.775,164.27 344.903,162.429C345.529,168.113 346.33,174.17 347.044,180.229C347.437,183.562 338.427,177.15 336.792,179.323C334.705,182.097 335.87,188.614 338.697,191.325C340.858,193.398 347.805,186.896 348.102,190.168C348.873,198.639 349.18,206.698 348.269,213.27C341.631,214.596 335.67,214.889 329.769,214.59C326.902,214.444 332.25,222.444 329.89,224.372C327.242,226.535 321.366,225.889 319.179,223.242C317.255,220.914 324.05,214.159 321.14,213.784C313.429,212.792 305.318,211.172 295.488,209.866C294.347,203.952 294.543,198.29 295.294,192.769C295.715,189.676 302.527,197.13 305.163,195.203C308.124,193.038 309.196,187.007 307.141,184.107C305.318,181.533 296.311,186.627 296.943,183.602C298.285,177.18 299.794,170.868 300.152,164.479" style="fill:none;stroke:#8c0000;stroke-width:1.96px;"/>
        <path d="M293.961,225.878C303.791,227.184 311.902,228.804 319.614,229.797C322.523,230.171 315.728,236.926 317.652,239.254C319.839,241.901 325.716,242.548 328.363,240.385C330.723,238.456 325.375,230.457 328.242,230.602C334.143,230.902 340.104,230.609 346.742,229.282C345.503,238.217 345.465,245.395 345.701,252.119C345.801,254.981 339.151,249.299 337.343,251.138C335.261,253.257 335.188,258.241 337.372,260.596C339.375,262.756 345.951,257.76 346.079,260.557C346.304,265.467 346.461,270.432 346.163,275.995C341.21,274.781 335.924,274.127 330.526,273.923C327.367,273.804 334.084,266.579 332.316,264.924C329.949,262.707 323.89,262.786 321.056,265.057C318.849,266.824 324.17,273.838 320.978,274.005C313.991,274.371 307.029,275.369 300.551,276.769C298.588,268.009 297.592,260.351 296.914,253.377C296.614,250.286 304.857,255.148 306.812,252.5C308.971,249.575 308.218,243.684 305.552,241.677C303.221,239.922 296.376,247.33 296.145,244.472C295.613,237.901 295.113,231.85 293.961,225.878" style="fill:none;stroke:#8c0000;stroke-width:1.96px;"/>
        <path d="M302.085,293.639C308.563,292.239 315.525,291.241 322.512,290.875C325.704,290.708 320.383,283.694 322.59,281.927C325.425,279.656 331.483,279.577 333.851,281.794C335.619,283.449 328.902,290.674 332.06,290.793C337.459,290.997 342.744,291.651 347.698,292.865C347.367,299.053 347.297,304.139 347.178,308.889C347.107,311.72 353.573,306.466 355.025,308.195C356.945,310.483 356.906,315.792 354.861,318.04C353.259,319.801 347.018,314.432 346.846,317.186C346.456,323.435 345.636,329.905 343.621,338.491C337.515,339.019 331.953,340.279 326.222,341.385C323.339,341.942 330.035,347.374 328.612,349.136C326.464,351.796 320.444,353.604 317.63,352.027C315.563,350.868 320.414,342.46 317.355,342.826C311.675,343.507 305.535,343.666 298.353,342.585C298.982,334.137 300.49,327.119 301.688,320.469C302.209,317.578 307.411,324.968 308.987,323.813C311.553,321.931 313.456,315.916 311.954,312.942C310.835,310.728 302.672,314.757 302.978,311.918C303.6,306.144 303.576,300.296 302.085,293.639" style="fill:none;stroke:#8c1200;stroke-width:1.96px;"/>
        <path d="M296.643,360.259C303.826,361.34 309.966,361.181 315.645,360.5C318.704,360.134 313.854,368.543 315.92,369.701C318.735,371.278 324.754,369.47 326.902,366.81C328.325,365.048 321.63,359.616 324.512,359.059C330.244,357.953 335.805,356.693 341.912,356.165C340.557,361.936 340.895,368.089 341.535,374.86C341.821,377.889 334.573,373.411 333.094,375.625C331.173,378.5 331.512,384.182 333.851,386.36C335.65,388.035 342.168,381.041 342.451,384.338C342.908,389.663 343.198,395.366 342.796,401.535C337.914,401.53 332.682,401.554 327.429,401.554C324.228,401.554 329.566,408.956 327.18,410.952C324.25,413.402 318.038,413.713 315.712,411.354C313.786,409.4 321.018,401.545 317.875,401.515C311.718,401.458 305.815,401.32 300.726,401.014C301.741,394.838 301.116,389.048 300.072,383.512C299.482,380.381 292.984,387.429 290.199,385.41C287.3,383.309 286.496,377.874 288.477,375.106C290.291,372.57 298.758,377.331 298.121,374.338C297.098,369.531 296.3,364.871 296.643,360.259" style="fill:none;stroke:#8c1200;stroke-width:1.96px;"/>
        <path d="M302.109,416.913C307.199,417.219 313.101,417.357 319.258,417.414C322.401,417.444 315.169,425.3 317.095,427.253C319.422,429.612 325.634,429.301 328.563,426.851C330.949,424.855 325.611,417.453 328.813,417.453C334.066,417.453 339.297,417.429 344.179,417.434C343.679,425.114 344.763,431.335 345.92,437.404C346.452,440.198 351.614,433.528 353.312,434.836C355.623,436.617 356.639,441.783 355.166,444.528C354.03,446.643 347,442.959 347.417,445.816C348.24,451.462 348.548,457.48 347.205,464.854C340.946,463.639 335.255,463.364 329.426,463.666C326.589,463.813 332.08,470.362 329.99,472.57C327.628,475.068 322.289,475.679 319.975,473.655C317.915,471.854 323.719,464.096 320.735,464.475C313.894,465.342 306.451,466.707 297.426,468.064C295.993,459.035 296.235,451.633 297.249,444.095C297.63,441.262 303.861,448.392 305.654,446.9C307.976,444.967 308.282,439.228 306.536,436.364C305.266,434.282 298.12,438.41 298.671,435.446C299.708,429.873 300.96,423.903 302.109,416.913" style="fill:none;stroke:#8b2900;stroke-width:1.96px;"/>
        <path d="M295.865,483.46C304.891,482.102 312.333,480.737 319.175,479.87C322.159,479.492 316.355,487.249 318.414,489.05C320.728,491.074 326.067,490.463 328.43,487.966C330.519,485.757 325.029,479.208 327.865,479.061C333.695,478.759 339.385,479.034 345.644,480.249C344.692,485.48 344.445,490.961 344.491,496.811C344.514,499.677 351.233,493.804 353.172,495.702C355.692,498.171 356.685,504.187 354.573,506.684C352.763,508.823 344.607,502.633 344.722,505.691C345.017,513.537 345.455,522.059 345.217,531.495C337.755,531.625 331.148,531.624 324.549,531.519C321.674,531.473 327.292,523.857 325.151,522.08C322.52,519.897 316.35,520.475 314.026,522.786C312.352,524.452 318.799,531.408 315.856,531.324C309.711,531.151 303.265,530.9 295.879,530.594C296.139,525.126 296.495,518.931 296.727,512.637C296.848,509.352 288.588,515.875 286.551,513.615C283.959,510.739 283.759,503.842 286.361,501.136C288.492,498.918 296.935,506.039 296.957,502.788C297.005,495.756 296.747,489.012 295.865,483.46" style="fill:none;stroke:#8b2900;stroke-width:1.96px;"/>
        <path d="M296.112,545.542C303.498,545.848 309.944,546.099 316.089,546.272C319.032,546.355 312.584,539.399 314.259,537.734C316.583,535.423 322.753,534.845 325.384,537.028C327.525,538.805 321.906,546.421 324.782,546.467C331.381,546.572 337.987,546.573 345.45,546.442C345.33,551.219 344.851,556.216 344.337,561.294C344.023,564.393 351.493,559.374 353.547,561.791C355.901,564.56 356.282,570.156 353.752,572.372C351.257,574.557 343.696,567.523 343.429,570.653C342.913,576.715 342.622,582.774 343.091,588.604C336.282,588.291 330.126,588.765 323.725,589.276C320.832,589.506 325.442,582.684 323.301,581C320.515,578.81 314.703,578.285 312.581,580.515C310.763,582.426 317.89,589.744 314.814,589.92C309.982,590.196 304.823,590.318 299.014,590.017C299.154,584.27 298.832,579.133 298.353,574.32C298.046,571.233 291.348,577.415 289.058,575.33C286.402,572.911 285.661,567.133 287.726,564.647C289.503,562.507 297.674,568.279 297.319,565.383C296.508,558.767 295.784,552.453 296.112,545.542" style="fill:none;stroke:#8b2900;stroke-width:1.96px;"/>
        <path d="M297.042,608.694C302.851,608.995 308.01,608.873 312.842,608.597C315.918,608.422 308.791,601.103 310.609,599.192C312.731,596.963 318.543,597.488 321.329,599.678C323.47,601.361 318.86,608.184 321.753,607.953C328.154,607.443 334.31,606.968 341.119,607.282C341.702,614.536 341.751,620.986 341.538,627.098C341.433,630.101 334.515,622.921 332.676,624.56C330.319,626.661 330.012,632.662 332.11,635.502C333.79,637.777 341.265,633.023 341.065,635.919C340.502,644.108 339.691,652.094 339.363,661.133C333.345,662.27 327.504,662.393 321.558,661.97C318.566,661.758 323.713,669.207 321.515,670.948C318.992,672.945 313.73,672.454 311.468,669.961C309.458,667.747 315.547,661.407 312.466,660.977C307.525,660.289 302.421,659.397 297.007,658.55C296.919,650.301 296.847,642.031 296.828,634.146C296.821,630.964 288.87,637.128 286.923,634.887C284.486,632.082 284.603,625.447 287.081,622.929C289.009,620.97 296.822,627.844 296.834,624.814C296.857,619.056 296.921,613.622 297.042,608.694" style="fill:none;stroke:#8a3c00;stroke-width:1.96px;"/>
        <path d="M299.332,674.898C304.746,675.746 309.85,676.637 314.791,677.326C317.873,677.755 311.783,684.095 313.793,686.31C316.055,688.802 321.317,689.294 323.84,687.296C326.038,685.556 320.891,678.106 323.883,678.319C329.829,678.742 335.67,678.618 341.688,677.481C341.532,681.773 341.896,686.908 342.45,692.288C342.784,695.53 334.237,690.509 332.746,692.908C330.848,695.962 332.149,702.193 334.859,704.502C336.806,706.162 343.187,698.86 343.588,702.148C344.433,709.083 345.267,715.83 345.416,721.158L299.728,721.158C301.465,713.99 301.736,707.504 301.441,701.283C301.297,698.23 309.528,703.654 311.34,701.265C313.214,698.795 311.594,693.655 308.935,691.405C306.749,689.555 301.016,695.24 300.705,692.266C300.106,686.539 299.395,680.866 299.332,674.898" style="fill:none;stroke:#8a3c00;stroke-width:1.96px;"/>
        <path d="M363.633,101.959L411.389,101.959C411.456,111.268 410.336,118.468 409.255,125.7C408.846,128.441 403.514,123.025 401.403,124.762C398.86,126.854 397.409,131.744 399.086,134.067C400.628,136.204 408.442,131.187 408.11,134.054C407.501,139.314 407.137,144.981 407.428,151.777C399.809,152.364 393.02,151.2 386.757,149.728C383.598,148.986 391.447,142.669 389.612,139.835C387.535,136.628 381.441,134.994 378.449,136.898C375.771,138.602 380.573,148.166 377.643,147.453C371.314,145.913 365.425,144.872 359.583,146.195C358.862,139.649 358.903,134.398 359.363,129.442C359.625,126.621 352.461,131.766 351.008,129.884C349.15,127.477 349.558,122.014 351.929,119.813C353.913,117.971 360.022,123.896 360.492,121.081C361.419,115.527 362.628,109.626 363.633,101.959" style="fill:none;stroke:#8c0000;stroke-width:1.96px;"/>
        <path d="M359.604,163.204C365.446,161.881 371.335,162.922 377.663,164.462C380.594,165.175 375.792,155.611 378.469,153.907C381.462,152.003 387.556,153.637 389.633,156.844C391.468,159.678 383.619,165.995 386.778,166.737C393.041,168.208 399.83,169.372 407.449,168.785C407.613,172.613 407.408,176.942 407.095,181.526C406.884,184.618 414.956,179.556 416.52,181.861C418.57,184.881 417.826,191.305 415.296,193.609C413.494,195.249 406.625,187.825 406.398,191.073C405.912,198.041 405.574,205.195 406.182,211.794C401.207,211.678 395.977,211.598 390.714,211.659C387.527,211.697 394.487,203.149 392.552,201.551C390.02,199.46 383.434,200.696 380.588,203.296C378.591,205.12 384.328,211.786 381.166,211.95C374.817,212.281 368.619,212.915 362.969,214.045C363.88,207.473 363.574,199.414 362.803,190.943C362.505,187.671 355.559,194.172 353.398,192.1C350.57,189.389 349.406,182.872 351.493,180.098C353.128,177.925 362.138,184.337 361.745,181.003C361.03,174.945 360.23,168.887 359.604,163.204" style="fill:none;stroke:#8c0000;stroke-width:1.96px;"/>
        <path d="M361.836,229.572C367.486,228.443 373.684,227.808 380.032,227.478C383.194,227.313 377.457,220.647 379.455,218.823C382.301,216.223 388.887,214.987 391.418,217.078C393.354,218.677 386.394,227.224 389.581,227.187C394.843,227.125 400.073,227.205 405.049,227.321C405.827,235.762 406.803,242.851 407.524,249.344C407.862,252.385 400.92,247.508 399.655,249.346C397.855,251.963 398.156,257.609 400.323,259.81C401.877,261.389 408.144,255.295 408.323,258.153C408.647,263.301 408.637,268.277 408.023,273.536C402.067,272.744 396.941,273.461 391.929,274.504C389.079,275.097 393.85,266.357 391.814,265.206C389.071,263.655 383.069,265.504 380.956,268.298C379.448,270.291 386.267,275.796 383.36,276.383C376.927,277.683 370.034,278.436 361.257,276.284C361.555,270.722 361.398,265.757 361.173,260.847C361.045,258.049 354.469,263.045 352.466,260.885C350.282,258.53 350.355,253.547 352.437,251.428C354.245,249.588 360.895,255.27 360.795,252.408C360.559,245.685 360.597,238.506 361.836,229.572" style="fill:none;stroke:#8c0000;stroke-width:1.96px;"/>
        <path d="M363.858,292.809C372.634,294.961 379.528,294.208 385.961,292.908C388.867,292.321 382.049,286.816 383.556,284.823C385.67,282.029 391.672,280.18 394.415,281.731C396.451,282.882 391.68,291.622 394.53,291.029C399.541,289.986 404.668,289.269 410.624,290.06C409.778,297.301 409.06,304.666 408.473,311.972C408.224,315.069 416.913,308.846 418.634,311.025C420.703,313.647 419.459,319.91 416.75,322.458C414.684,324.401 407.998,318.155 407.796,321.217C407.311,328.583 406.962,335.807 406.754,342.695C401.992,342.461 397.019,341.569 391.62,340.631C388.782,340.138 393.459,348.281 391.01,350.073C388.298,352.059 382.844,351.29 380.772,348.573C378.872,346.081 385.827,339.633 382.722,339.204C375.904,338.263 368.368,337.692 359.782,338.435C361.797,329.85 362.616,323.38 363.006,317.131C363.178,314.376 369.419,319.746 371.021,317.985C373.066,315.737 373.106,310.427 371.185,308.139C369.734,306.411 363.267,311.665 363.338,308.834C363.457,304.083 363.527,298.997 363.858,292.809" style="fill:none;stroke:#8c1200;stroke-width:1.96px;"/>
        <path d="M356.288,356.261C364.875,355.518 372.411,356.089 379.229,357.03C382.334,357.459 375.378,363.907 377.278,366.398C379.351,369.115 384.805,369.884 387.517,367.899C389.966,366.107 385.289,357.964 388.127,358.457C393.526,359.394 398.499,360.287 403.26,360.521C403.077,366.594 404.224,372.601 405.155,379.009C405.586,381.979 397.261,376.471 395.727,378.573C393.834,381.169 394.974,386.98 397.581,389.392C399.599,391.26 405.971,385.035 406.155,388.224C406.441,393.174 406.244,398.445 404.986,404.21C400.091,404.695 394.852,404.451 389.185,403.958C386.275,403.705 391.675,411.084 389.863,412.433C387.104,414.489 380.588,414.521 378.148,412.179C376.381,410.483 383.252,403.386 380.105,403.066C373.115,402.356 365.512,401.641 357.173,401.631C357.574,395.462 357.285,389.759 356.828,384.434C356.545,381.137 350.027,388.131 348.228,386.456C345.889,384.278 345.55,378.596 347.471,375.721C348.95,373.507 356.198,377.985 355.912,374.956C355.272,368.185 354.934,362.032 356.288,356.261" style="fill:none;stroke:#8c1200;stroke-width:1.96px;"/>
        <path d="M360.02,417.936C368.36,417.945 375.962,418.66 382.953,419.371C386.1,419.691 379.229,426.787 380.996,428.483C383.435,430.825 389.952,430.793 392.711,428.738C394.523,427.389 389.122,420.01 392.032,420.263C397.699,420.756 402.939,420.999 407.834,420.514C406.852,425.017 406.511,430.03 406.486,435.233C406.471,438.438 414.864,431.649 417.188,434.014C419.816,436.688 419.612,443.184 416.996,445.928C414.784,448.247 406.575,441.715 406.723,444.989C407.032,451.822 407.531,458.642 407.528,464.767C400.879,466.28 394.717,467.184 388.56,467.47C385.616,467.607 392.01,474.064 390.496,475.53C388.151,477.801 381.886,478.57 379.181,476.552C377.161,475.045 382.673,467.603 379.678,467.457C374.392,467.2 368.944,466.501 363.046,465.356C364.389,457.982 364.081,451.963 363.258,446.317C362.842,443.461 369.871,447.144 371.007,445.03C372.481,442.285 371.464,437.119 369.153,435.338C367.455,434.029 362.294,440.7 361.761,437.906C360.604,431.837 359.521,425.616 360.02,417.936" style="fill:none;stroke:#8b2900;stroke-width:1.96px;"/>
        <path d="M364.248,480.356C370.146,481.502 375.594,482.201 380.88,482.458C383.875,482.604 378.363,490.045 380.383,491.553C383.088,493.571 389.353,492.801 391.698,490.531C393.212,489.065 386.818,482.608 389.762,482.471C395.919,482.184 402.081,481.281 408.73,479.768C408.726,486.855 409.247,493.36 409.738,499.459C409.998,502.686 416.371,496.751 417.978,498.545C420.47,501.327 421.599,508.019 419.707,510.589C418.495,512.236 410.25,505.799 410.41,508.825C410.78,515.787 410.67,522.284 409.078,528.636C404.242,529.577 399.001,530.194 393.654,530.607C390.509,530.85 395.954,523.119 393.752,521.402C391.12,519.348 385.52,519.957 383.124,522.394C381.192,524.36 387.327,531.023 384.17,531.151C377.025,531.439 370.006,531.493 363.821,531.602C364.059,522.166 363.62,513.644 363.325,505.798C363.211,502.74 371.367,508.93 373.177,506.791C375.289,504.294 374.296,498.278 371.775,495.81C369.837,493.911 363.117,499.785 363.095,496.918C363.048,491.068 363.295,485.587 364.248,480.356" style="fill:none;stroke:#8b2900;stroke-width:1.96px;"/>
        <path d="M363.138,547.213C369.323,547.105 376.342,547.05 383.486,546.762C386.644,546.634 380.509,539.971 382.441,538.006C384.837,535.568 390.437,534.96 393.069,537.013C395.271,538.73 389.825,546.462 392.971,546.218C398.317,545.805 403.559,545.189 408.394,544.247C407.255,548.791 406.856,554.394 406.747,560.431C406.69,563.601 414.061,557.577 415.686,559.509C418.139,562.426 418.795,569.421 416.561,572.097C415.01,573.955 406.712,566.891 406.749,570.21C406.85,579.207 407.057,588.414 406.073,596.024C399.939,595.819 394.263,595.06 388.933,594.123C385.762,593.565 393.469,587.985 392.025,585.802C390.157,582.979 384.527,581.194 381.462,582.828C378.827,584.233 382.714,592.944 379.764,592.339C373.016,590.954 366.782,589.651 360.778,589.375C360.309,583.545 360.6,577.485 361.117,571.423C361.384,568.294 368.945,575.327 371.44,573.142C373.969,570.927 373.589,565.331 371.235,562.561C369.181,560.144 361.711,565.164 362.024,562.064C362.539,556.986 363.017,551.99 363.138,547.213" style="fill:none;stroke:#8b2900;stroke-width:1.96px;"/>
        <path d="M357.29,607.516C363.294,607.792 369.527,609.095 376.275,610.48C379.225,611.085 375.338,602.374 377.973,600.969C381.038,599.335 386.669,601.12 388.536,603.943C389.98,606.126 382.274,611.706 385.444,612.264C390.774,613.201 396.45,613.96 402.584,614.165C401.697,621.017 402.015,626.732 402.64,632.557C402.94,635.352 394.975,629.989 393.764,631.782C392.106,634.236 393.537,640.028 396.009,642.372C397.72,643.993 403.311,638.174 403.654,641.158C404.171,645.649 404.623,650.51 404.674,656.21C398.719,657.77 391.318,658.361 383.532,658.82C380.259,659.012 387.264,666.911 384.996,669.294C382.433,671.988 376.13,672.073 373.278,669.597C370.84,667.48 376.918,659.182 373.588,659.39C367.36,659.778 361.169,660.302 355.534,661.367C355.862,652.328 356.673,644.343 357.236,636.153C357.435,633.257 349.961,638.011 348.281,635.736C346.183,632.896 346.49,626.895 348.847,624.794C350.686,623.155 357.604,630.335 357.709,627.332C357.922,621.22 357.873,614.77 357.29,607.516" style="fill:none;stroke:#8a3c00;stroke-width:1.96px;"/>
        <path d="M356.999,677.031C362.634,675.966 368.824,675.443 375.053,675.054C378.383,674.846 372.305,683.144 374.742,685.261C377.594,687.737 383.897,687.652 386.461,684.958C388.729,682.575 381.724,674.677 384.997,674.484C392.783,674.025 400.184,673.434 406.139,671.875C406.196,678.289 405.365,685.034 404.947,692.505C404.78,695.49 412.533,690.594 414.393,693.038C416.527,695.842 415.898,701.521 413.482,703.719C411.557,705.471 404.68,698.591 404.728,701.833C404.814,707.627 405.376,713.87 406.888,720.708L360.726,720.708C360.578,715.38 359.744,708.633 358.899,701.697C358.498,698.409 352.117,705.711 350.17,704.052C347.459,701.742 346.159,695.511 348.057,692.458C349.547,690.059 358.095,695.079 357.761,691.838C357.206,686.458 356.843,681.322 356.999,677.031" style="fill:none;stroke:#8a3c00;stroke-width:1.96px;"/>
        <path d="M426.771,101.932L472.201,101.932C473.141,106.791 473.004,112.192 472.389,117.808C472.047,120.932 465.773,112.998 464.294,114.251C461.751,116.406 460.536,123.159 462.218,126.426C463.322,128.571 471.557,124.121 471.021,127.321C469.794,134.648 468.328,142.026 467.854,148.776C459.432,146.893 452.604,147.055 446.252,147.914C443.295,148.314 447.84,140.91 445.946,139.789C443.385,138.272 438.098,139.437 436.006,141.847C434.467,143.621 440.441,148.865 437.578,149.431C432.851,150.366 428.098,151.342 422.81,151.75C422.519,144.954 422.883,139.287 423.492,134.027C423.823,131.16 416.01,136.177 414.468,134.04C412.791,131.717 414.242,126.827 416.785,124.735C418.896,122.998 424.228,128.414 424.637,125.672C425.718,118.441 426.838,111.241 426.771,101.932" style="fill:none;stroke:#8c0000;stroke-width:1.96px;"/>
        <path d="M423.938,168.038C429.225,167.631 433.979,166.654 438.705,165.72C441.569,165.153 435.594,159.91 437.134,158.136C439.226,155.725 444.513,154.56 447.074,156.077C448.968,157.199 444.423,164.602 447.379,164.202C453.732,163.343 460.56,163.181 468.982,165.064C468.421,173.066 469.359,179.871 470.467,186.268C470.975,189.198 462.318,183.914 460.779,186.136C459.099,188.562 460.95,193.788 463.748,195.973C466.035,197.759 471.518,192.043 471.969,194.877C472.83,200.282 473.356,205.652 472.663,211.513C466.679,212.15 459.57,212.225 452.168,212.075C448.938,212.009 454.425,220.747 451.661,222.865C448.795,225.06 443.025,223.628 440.704,220.856C438.815,218.598 445.652,211.9 442.38,211.775C435.542,211.515 428.762,211.188 422.67,211.046C422.062,204.448 422.4,197.293 422.887,190.326C423.114,187.078 429.982,194.501 431.784,192.861C434.315,190.558 435.059,184.134 433.009,181.113C431.445,178.809 423.373,183.87 423.584,180.779C423.896,176.195 424.102,171.866 423.938,168.038" style="fill:none;stroke:#8c0000;stroke-width:1.96px;"/>
        <path d="M423.232,227.499C429.324,227.641 436.104,227.969 442.942,228.229C446.214,228.353 439.377,235.051 441.266,237.309C443.587,240.081 449.357,241.513 452.223,239.318C454.987,237.201 449.5,228.462 452.73,228.528C460.132,228.679 467.241,228.603 473.225,227.967C472.298,235.809 471.82,242.965 471.66,249.662C471.584,252.818 479.223,246.11 481.4,248.191C483.734,250.423 483.438,255.925 480.996,258.589C478.794,260.991 471.58,255.871 471.632,258.847C471.755,265.808 472.191,272.344 472.766,278.759C465.056,277.352 457.561,276.559 450.384,275.94C447.282,275.673 454.101,269.557 452.595,267.888C450.345,265.395 444.218,264.142 441.386,265.97C439.24,267.354 444.239,275.438 441.264,275.199C436.021,274.779 430.987,274.349 426.207,273.714C426.821,268.455 426.831,263.479 426.507,258.331C426.328,255.474 420.061,261.568 418.507,259.989C416.34,257.787 416.039,252.141 417.839,249.525C419.104,247.687 426.046,252.564 425.708,249.523C424.987,243.029 424.011,235.94 423.232,227.499" style="fill:none;stroke:#8c0000;stroke-width:1.96px;"/>
        <path d="M425.45,288.642C430.23,289.277 435.263,289.707 440.507,290.127C443.482,290.365 438.483,282.282 440.628,280.898C443.461,279.07 449.588,280.323 451.838,282.815C453.344,284.484 446.525,290.6 449.627,290.868C456.804,291.487 464.299,292.279 472.009,293.687C472.607,300.353 471.971,306.532 471.039,312.401C470.542,315.527 463.628,308.676 461.586,310.612C458.963,313.1 458.581,319.623 460.544,322.356C461.864,324.194 469.961,318.564 469.438,321.541C468.415,327.362 467.61,332.951 468.082,338.509C460.726,338.542 453.598,339.237 446.661,339.935C443.599,340.243 448.566,332.376 445.967,330.2C443.289,327.96 438.047,328.321 435.951,330.972C433.874,333.599 440.575,340.551 437.585,340.803C432.143,341.261 426.814,341.533 421.58,341.276C421.788,334.388 422.137,327.164 422.622,319.799C422.824,316.737 429.51,322.982 431.576,321.039C434.285,318.491 435.529,312.228 433.46,309.607C431.74,307.427 423.05,313.65 423.299,310.553C423.886,303.247 424.604,295.882 425.45,288.642" style="fill:none;stroke:#8c1200;stroke-width:1.96px;"/>
        <path d="M419.811,358.438C425.045,358.695 430.374,358.423 435.816,357.965C438.806,357.713 432.105,350.762 434.183,348.134C436.278,345.483 441.521,345.122 444.198,347.363C446.798,349.538 441.831,357.405 444.892,357.097C451.829,356.4 458.958,355.704 466.313,355.671C466.739,360.689 467.228,366.334 467.662,372.43C467.878,375.458 459.176,368.876 457.172,371.118C454.945,373.608 455.983,379.717 458.754,382.394C461.07,384.63 468.081,378.596 468.256,381.824C468.554,387.321 468.772,393.078 468.839,398.986C461.89,397.234 456.35,396.869 451.252,397.214C448.458,397.403 456.085,403.818 454.656,405.724C452.853,408.126 446.928,408.677 444.042,406.824C441.776,405.369 445.798,397.806 443.11,398.31C436.765,399.502 430.272,401.262 421.537,402.128C422.794,396.363 422.992,391.092 422.706,386.142C422.522,382.953 416.149,389.178 414.131,387.31C411.524,384.898 410.384,379.087 412.278,376.491C413.811,374.389 422.137,379.897 421.705,376.927C420.775,370.518 419.627,364.512 419.811,358.438" style="fill:none;stroke:#8c1200;stroke-width:1.96px;"/>
        <path d="M423.548,418.154C432.284,417.288 438.776,415.528 445.121,414.336C447.809,413.832 443.788,421.395 446.053,422.85C448.939,424.703 454.864,424.152 456.667,421.75C458.097,419.844 450.47,413.429 453.263,413.24C458.362,412.895 463.902,413.26 470.851,415.012C470.909,420.102 471.448,425.15 472.025,430.322C472.35,433.235 464.079,428.771 462.515,431.248C460.772,434.009 462.443,439.376 465.053,441.367C467.031,442.875 472.687,436.188 472.956,439.21C473.617,446.644 473.869,454.497 472.527,463.212C465.928,464.806 458.826,464.429 451.778,463.645C448.531,463.283 456.37,456.058 454.619,454.076C452.268,451.415 445.499,450.907 442.376,453.002C440.104,454.526 445.295,462.835 442.126,462.454C435.351,461.637 428.879,461.124 423.242,462.407C423.246,456.281 422.747,449.461 422.437,442.628C422.289,439.354 430.499,445.887 432.71,443.567C435.327,440.824 435.53,434.327 432.902,431.653C430.578,429.288 422.185,436.077 422.2,432.872C422.225,427.67 422.566,422.657 423.548,418.154" style="fill:none;stroke:#8b2900;stroke-width:1.96px;"/>
        <path d="M424.476,478.867C430.112,477.585 436.585,478.098 443.36,478.914C446.529,479.296 441.337,470.986 443.609,469.462C446.733,467.368 453.502,467.875 455.852,470.536C457.604,472.519 449.764,479.744 453.012,480.105C460.059,480.89 467.162,481.266 473.761,479.672C472.944,484.975 472.165,489.819 471.584,494.594C471.23,497.503 478.309,492.132 479.466,493.722C481.313,496.259 481.14,502.339 478.968,504.741C477.477,506.39 470.949,500.386 470.779,503.332C470.382,510.185 470.581,517.378 471.835,526.022C465.514,526.165 460.243,525.952 455.221,525.778C452.358,525.679 457.324,533.2 454.97,535.1C452.446,537.138 447.185,536.306 445.124,533.929C443.405,531.947 449.576,525.593 446.727,525.593C440.324,525.593 433.584,526.03 424.824,527.735C426.416,521.383 426.526,514.886 426.156,507.924C425.995,504.898 434.24,511.335 435.453,509.688C437.345,507.118 436.216,500.426 433.723,497.644C432.117,495.85 425.744,501.785 425.484,498.558C424.993,492.459 424.471,485.954 424.476,478.867" style="fill:none;stroke:#8b2900;stroke-width:1.96px;"/>
        <path d="M424.792,545.649C433.553,543.944 440.293,543.508 446.695,543.507C449.544,543.507 443.374,549.861 445.093,551.844C447.154,554.22 452.415,555.052 454.939,553.014C457.293,551.114 452.326,543.593 455.19,543.692C460.211,543.866 465.483,544.08 471.804,543.937C472.8,550.807 472.766,556.795 472.393,562.502C472.199,565.481 479.098,560.073 480.821,562.03C482.938,564.434 483.159,569.803 480.861,572.118C478.778,574.218 471.912,568.382 471.631,571.292C470.861,579.27 470.137,587.314 471.483,597.183C463.388,596.168 456.518,596.107 450.108,596.357C447.07,596.475 453.081,603.354 450.916,605.799C448.63,608.38 443.388,608.915 440.965,606.679C438.586,604.482 444.135,596.663 441.223,596.852C435.125,597.248 429.123,597.649 422.471,597.426C423.455,589.816 423.247,580.609 423.147,571.612C423.11,568.293 431.407,575.357 432.959,573.499C435.193,570.824 434.537,563.828 432.084,560.911C430.459,558.979 423.088,565.003 423.145,561.833C423.254,555.796 423.653,550.193 424.792,545.649" style="fill:none;stroke:#8b2900;stroke-width:1.96px;"/>
        <path d="M419.134,614.11C425.786,614.332 431.788,613.931 437.886,613.535C440.798,613.346 435.249,621.166 437.628,623.362C440.051,625.599 445.293,625.063 447.579,622.483C449.745,620.038 443.733,613.158 446.771,613.04C453.181,612.791 460.051,612.852 468.146,613.866C469.047,620.47 469.5,626.342 469.622,632.397C469.68,635.278 462.241,629.779 460.199,632.022C457.951,634.491 458.283,639.965 460.629,642.276C462.649,644.265 469.663,638.201 469.584,641.263C469.433,647.068 469.057,653.375 468.543,660.855C463.078,662.081 457.01,661.117 450.78,659.676C447.6,658.94 452.416,667.933 450.384,668.965C447.185,670.59 440.286,669.083 437.983,666.173C436.444,664.228 444.378,658.08 441.172,657.323C434.251,655.689 427.405,654.536 421.224,656.155C421.173,650.455 420.72,645.594 420.204,641.102C419.861,638.118 414.269,643.938 412.559,642.317C410.087,639.973 408.656,634.18 410.313,631.726C411.524,629.934 419.49,635.297 419.19,632.501C418.565,626.676 418.247,620.961 419.134,614.11" style="fill:none;stroke:#8a3c00;stroke-width:1.96px;"/>
        <path d="M422.821,671.74C429.002,670.121 435.848,671.274 442.77,672.908C445.975,673.665 438.041,679.812 439.58,681.758C441.883,684.668 448.782,686.174 451.981,684.55C454.013,683.518 449.197,674.525 452.377,675.261C458.608,676.702 464.676,677.666 470.14,676.44C469.797,681.423 469.672,686.145 469.578,690.976C469.521,693.878 462.48,687.804 460.622,689.717C458.192,692.221 457.662,698.45 459.857,700.991C461.622,703.034 469.476,696.82 469.402,699.882C469.252,706.068 468.984,712.744 468.265,720.573L423.571,720.573C422.059,713.736 421.496,707.492 421.41,701.698C421.362,698.456 428.239,705.336 430.164,703.584C432.581,701.386 433.209,695.707 431.076,692.903C429.215,690.459 421.463,695.356 421.63,692.371C422.047,684.9 422.878,678.154 422.821,671.74" style="fill:none;stroke:#8a3c00;stroke-width:1.96px;"/>
        <path d="M488.538,101.619L532.271,101.619C531.489,106.928 531.647,111.832 532.155,116.72C532.455,119.615 524.8,114.917 522.819,117.401C520.734,120.014 521.194,125.156 523.814,127.173C526.381,129.149 532.878,122.505 533.301,125.47C534.288,132.395 535.274,139.732 534.694,148.51C527.516,147.255 520.272,147.772 513.005,148.465C509.892,148.762 516.139,141.018 514.46,139.698C511.838,137.638 505.22,137.819 502.519,140.226C500.575,141.959 506.774,149.092 503.656,149.329C497.161,149.821 490.663,149.911 484.191,148.464C484.664,141.714 486.131,134.336 487.358,127.008C487.894,123.809 479.658,128.259 478.554,126.114C476.873,122.846 478.088,116.094 480.631,113.939C482.11,112.686 488.384,120.619 488.726,117.496C489.341,111.88 489.477,106.478 488.538,101.619" style="fill:none;stroke:#8c0000;stroke-width:1.96px;"/>
        <path d="M483.735,162.799C490.207,164.246 496.706,164.157 503.2,163.664C506.318,163.428 500.12,156.295 502.063,154.562C504.764,152.155 511.383,151.974 514.004,154.034C515.684,155.354 509.436,163.098 512.549,162.801C519.816,162.107 527.06,161.59 534.239,162.845C533.787,169.695 533.365,175.813 533.039,181.567C532.863,184.658 525.562,178.702 523.648,180.833C521.463,183.266 522.058,188.863 524.297,191.301C526.019,193.175 532.715,187.644 532.605,190.581C532.393,196.222 532.32,201.683 532.456,207.368C527.111,206.648 520.553,206.628 513.62,206.965C510.432,207.12 515.564,199.505 513.22,197.74C510.397,195.615 504.659,195.993 502.329,198.464C500.413,200.497 507.165,207.351 503.901,207.624C498.258,208.096 492.623,208.695 487.417,209.248C488.109,203.387 487.583,198.017 486.723,192.612C486.271,189.777 480.788,195.494 478.501,193.708C475.704,191.522 473.853,186.297 475.533,183.871C477.071,181.649 485.728,186.933 485.22,184.003C484.112,177.606 483.174,170.801 483.735,162.799" style="fill:none;stroke:#8c0000;stroke-width:1.96px;"/>
        <path d="M490.902,227.463C496.109,226.91 501.744,226.311 507.386,225.839C510.651,225.566 503.899,218.712 505.815,216.679C508.145,214.208 513.882,213.829 516.705,215.955C519.049,217.72 513.918,225.335 517.106,225.18C524.038,224.843 530.597,224.863 535.942,225.583C536.113,232.72 536.001,238.962 536.092,245.135C536.134,248.001 542.528,242.327 544.433,244.179C546.802,246.483 547.576,251.953 545.567,254.351C543.819,256.437 536.219,250.852 536.397,253.77C536.749,259.545 537.462,265.585 538.914,272.532C530.3,273.191 523.806,275.015 517.616,276.591C514.854,277.294 521.339,282.826 519.659,285.144C517.78,287.736 512.677,288.639 510.101,286.959C507.886,285.515 512.153,277.947 509.352,278.425C503.845,279.365 497.95,279.627 490.443,278.256C489.868,271.84 489.432,265.305 489.309,258.344C489.257,255.368 496.471,260.488 498.673,258.085C501.115,255.421 501.411,249.92 499.077,247.688C496.9,245.607 489.261,252.314 489.336,249.159C489.496,242.461 489.975,235.306 490.902,227.463" style="fill:none;stroke:#8c0000;stroke-width:1.96px;"/>
        <path d="M487.343,294.896C494.85,296.266 500.745,296.005 506.252,295.065C509.053,294.587 504.786,302.155 507.001,303.599C509.577,305.278 514.68,304.376 516.559,301.784C518.239,299.465 511.754,293.934 514.516,293.231C520.706,291.655 527.2,289.83 535.814,289.172C537.45,297.008 537.751,304.222 537.255,311.198C537.041,314.197 530.21,307.61 528.262,309.442C525.857,311.703 525.648,317.579 527.636,320.241C529.135,322.25 536.68,317.152 536.214,320.093C535.13,326.937 533.479,333.709 531.798,340.791C524.873,341.776 517.292,341.687 509.852,341.278C506.616,341.1 512.597,334.23 510.404,331.966C507.751,329.228 501.769,328.162 499.241,330.326C497,332.245 503.407,340.861 500.291,340.625C494.138,340.157 488.345,339.695 483.416,339.718C482.944,334.159 483.749,328.571 484.772,322.75C485.295,319.773 477.199,325.403 475.878,323.564C473.915,320.832 474.297,314.309 476.92,311.821C478.962,309.885 485.876,316.735 486.373,313.61C487.305,307.741 487.941,301.562 487.343,294.896" style="fill:none;stroke:#8c1200;stroke-width:1.96px;"/>
        <path d="M483.682,356.484C488.61,356.462 494.403,356.924 500.556,357.391C503.673,357.628 497.266,349.012 499.506,347.093C502.035,344.929 508.016,345.995 510.669,348.733C512.863,350.997 506.882,357.867 510.118,358.045C517.557,358.454 525.138,358.543 532.064,357.558C530.86,362.632 530.236,367.619 530.047,372.815C529.944,375.64 536.194,370.754 538.119,372.755C540.568,375.3 541.848,380.805 539.844,382.997C537.993,385.022 529.97,378.527 530.102,381.523C530.427,388.909 531.395,396.958 532.658,406.379C526.219,405.65 518.891,404.915 511.598,404.037C508.32,403.642 513.565,411.644 511.527,412.936C508.434,414.897 501.641,414.427 499.226,411.881C497.573,410.138 505.048,403.218 501.868,402.752C496.2,401.923 490.821,400.962 486.208,399.799C486.141,393.891 485.923,388.134 485.625,382.637C485.449,379.409 478.438,385.444 476.122,383.207C473.351,380.53 472.313,374.422 474.54,371.931C476.544,369.689 485.247,376.271 485.031,373.244C484.596,367.148 484.107,361.502 483.682,356.484" style="fill:none;stroke:#8c1200;stroke-width:1.96px;"/>
        <path d="M485.669,417.021C490.283,418.184 495.661,419.145 501.329,419.974C504.509,420.44 497.034,427.36 498.688,429.103C501.102,431.649 507.896,432.119 510.989,430.158C513.026,428.866 507.781,420.864 511.06,421.259C518.352,422.137 525.68,422.872 532.119,423.6C532.614,427.29 532.928,431.589 533.119,436.136C533.253,439.332 524.412,432.849 522.355,435.252C520.177,437.798 521.654,443.642 524.405,446.32C526.616,448.472 533.327,442.65 533.362,445.966C533.431,452.699 533.337,459.421 533.252,465.082C526.578,466.303 520.394,465.664 514.058,464.913C511.092,464.561 516.342,473.494 513.906,475.154C511.153,477.031 505.274,475.219 503.046,472.422C501.364,470.309 508.093,464.185 504.995,463.964C499.539,463.575 493.775,463.667 487.346,465.221C488.688,456.506 488.436,448.653 487.774,441.219C487.505,438.197 481.85,444.885 479.871,443.376C477.261,441.386 475.59,436.018 477.333,433.257C478.897,430.78 487.168,435.245 486.844,432.332C486.267,427.159 485.727,422.111 485.669,417.021" style="fill:none;stroke:#8b2900;stroke-width:1.96px;"/>
        <path d="M489.147,481.907C495.577,480.353 501.341,480.261 506.797,480.65C509.895,480.871 503.165,486.995 504.848,489.107C507.076,491.905 512.955,493.717 515.708,491.84C518.144,490.179 512.894,481.247 515.86,481.598C522.196,482.35 528.38,482.989 535.054,481.768C534.952,488.508 534.898,494.463 534.985,500.022C535.033,503.103 527.7,497.563 526.002,499.649C524.04,502.06 524.82,507.337 527.138,509.665C528.986,511.523 535.123,506.062 535.273,508.964C535.663,516.556 536.454,523.764 537.925,531.764C530.827,532.817 524.625,532.279 518.188,531.337C515.351,530.922 519.505,538.054 517.277,539.572C514.283,541.613 508.169,541.904 506.211,539.5C504.519,537.425 512.469,530.428 509.443,529.958C502.996,528.956 495.901,528.061 487.222,528.257C485.968,519.613 485.769,512.419 486.165,505.566C486.336,502.62 492.864,508.625 494.355,506.976C496.527,504.574 496.699,498.494 494.853,495.957C493.696,494.367 486.616,499.737 486.97,496.829C487.551,492.053 488.331,487.209 489.147,481.907" style="fill:none;stroke:#8b2900;stroke-width:1.96px;"/>
        <path d="M487.304,545.199C495.984,545.003 503.079,545.898 509.526,546.9C512.551,547.37 504.601,554.367 506.293,556.443C508.251,558.846 514.365,558.555 517.359,556.514C519.587,554.996 515.434,547.864 518.271,548.279C524.708,549.221 530.909,549.76 538.007,548.706C538.965,553.916 537.568,560.858 535.9,568.061C535.131,571.382 529.248,563.431 527.334,564.914C524.313,567.255 522.244,574.143 523.817,577.426C524.853,579.588 534.304,574.757 533.624,578.045C532.316,584.365 531.55,590.359 532.775,595.002C527.428,593.728 522.127,593.907 516.896,594.636C513.773,595.071 522.026,601.679 520.323,604.33C518.476,607.203 512.69,608.123 509.511,606.125C506.624,604.309 510.675,595.702 507.607,596.337C500.549,597.798 493.652,599.281 486.983,598.445C485.637,588.577 486.361,580.533 487.131,572.555C487.412,569.644 494.278,575.48 496.361,573.381C498.659,571.065 498.439,565.696 496.322,563.292C494.598,561.335 487.699,566.743 487.893,563.765C488.266,558.058 488.3,552.07 487.304,545.199" style="fill:none;stroke:#8b2900;stroke-width:1.96px;"/>
        <path d="M487.039,614.422C493.708,615.257 500.605,613.775 507.663,612.313C510.73,611.678 506.679,620.286 509.567,622.101C512.746,624.1 518.532,623.179 520.378,620.307C522.082,617.656 513.828,611.047 516.951,610.612C522.182,609.884 527.484,609.705 532.831,610.979C534.462,617.159 535.981,622.48 536.976,627.82C537.492,630.589 543.707,623.604 545.379,625.089C547.698,627.146 548.084,633.257 546.25,636.051C544.966,638.008 537.867,633.364 538.044,636.265C538.39,641.942 537.976,648.106 536.372,655.673C528.72,654.044 521.881,654.065 515.438,654.901C512.433,655.291 520.133,661.289 518.75,663.141C516.925,665.588 511.164,666.342 508.136,664.686C505.841,663.431 509.515,655.858 506.64,656.518C500.179,658.001 493.938,659.952 487.435,661.411C487.95,653.931 488.325,647.624 488.476,641.819C488.556,638.757 481.542,644.821 479.522,642.832C477.176,640.521 476.843,635.047 479.092,632.577C481.133,630.335 488.573,635.834 488.515,632.953C488.393,626.898 487.939,621.026 487.039,614.422" style="fill:none;stroke:#8a3c00;stroke-width:1.96px;"/>
        <path d="M487.01,676.16C493.513,674.701 499.754,672.75 506.215,671.267C509.09,670.607 505.416,678.18 507.711,679.435C510.739,681.091 516.5,680.337 518.325,677.89C519.708,676.038 512.008,670.04 515.013,669.65C521.456,668.814 528.295,668.793 535.947,670.422C534.71,676.259 535.043,682.436 535.617,689.046C535.878,692.051 542.395,686.09 544.149,687.928C546.544,690.438 547.129,696.483 545.198,699.086C543.819,700.944 536.189,695.146 536.425,698.34C536.929,705.177 537.09,712.465 535.68,720.293L485.135,720.293C485.855,712.465 486.123,705.789 486.273,699.602C486.347,696.54 478.492,702.754 476.727,700.711C474.532,698.17 475.063,691.941 477.493,689.437C479.351,687.524 486.392,693.598 486.448,690.696C486.542,685.865 486.668,681.143 487.01,676.16" style="fill:none;stroke:#8a3c00;stroke-width:1.96px;"/>
        <path d="M550.236,101.539L597.469,101.539C596.857,107.098 597.931,112.795 598.968,119.037C599.46,122.004 606.69,115.395 609.351,117.671C612.18,120.09 612.561,126.044 610.282,128.714C608.256,131.089 599.945,125.094 600.237,128.351C600.73,133.85 600.673,139.826 599.177,146.487C592.145,146.246 585.113,147.037 578.261,147.814C575.128,148.169 579.397,140.679 576.989,139.159C574.011,137.279 568.35,137.891 566.35,140.294C564.807,142.148 572.032,148.521 568.991,148.769C563.321,149.232 557.84,149.335 552.659,148.43C553.238,139.652 552.252,132.315 551.265,125.39C550.843,122.425 544.346,129.069 541.779,127.093C539.158,125.076 538.698,119.934 540.783,117.321C542.765,114.837 550.42,119.535 550.119,116.64C549.612,111.752 549.454,106.848 550.236,101.539" style="fill:none;stroke:#8c0000;stroke-width:1.96px;"/>
        <path d="M550.671,162.943C555.853,163.849 561.333,163.746 567.003,163.283C570.044,163.034 562.819,156.662 564.363,154.807C566.362,152.404 572.023,151.792 575.001,153.672C577.41,155.193 573.14,162.682 576.273,162.327C583.126,161.551 590.157,160.759 597.189,161.001C595.64,167.9 595.337,174.991 595.409,181.844C595.444,185.123 588.29,179.372 586.805,181.281C584.646,184.058 584.555,190.403 586.773,192.95C588.326,194.733 595.564,188.347 595.675,191.469C595.883,197.303 596.059,202.781 595.58,207.597C586.631,205.498 578.791,205.698 571.638,206.34C568.529,206.62 574.649,198.553 572.766,197.098C570.294,195.188 564.274,196.154 561.749,198.699C559.832,200.63 565.549,206.982 562.665,207.276C557.863,207.765 553.324,208.063 548.889,207.466C548.752,201.781 548.826,196.32 549.038,190.679C549.148,187.742 542.452,193.273 540.73,191.398C538.491,188.961 537.895,183.364 540.081,180.93C541.994,178.8 549.296,184.756 549.471,181.664C549.797,175.911 550.219,169.793 550.671,162.943" style="fill:none;stroke:#8c0000;stroke-width:1.96px;"/>
        <path d="M550.539,224.886C554.974,225.484 559.512,225.186 564.315,224.697C567.199,224.403 561.482,218.051 563.398,216.119C565.924,213.575 571.944,212.608 574.416,214.519C576.299,215.973 570.179,224.04 573.288,223.761C580.441,223.119 588.281,222.919 597.23,225.017C596.629,231.064 597.027,237.506 597.46,244.21C597.656,247.252 589.824,241.824 587.916,244.145C585.731,246.805 586.201,252.513 588.718,254.848C590.867,256.842 597.86,250.347 597.982,253.484C598.274,261.034 598.089,268.824 596.173,276.683C588.7,276.899 583.226,275.871 578.09,274.688C575.419,274.073 578.633,281.344 576.169,282.758C573.489,284.295 568.882,283.311 567.369,280.839C565.969,278.553 572.839,273.416 570.117,272.871C565.41,271.928 560.277,271.319 553.51,271.836C552.059,264.889 551.346,258.848 550.994,253.074C550.816,250.155 558.416,255.741 560.164,253.654C562.173,251.257 561.398,245.787 559.03,243.483C557.125,241.631 550.73,247.304 550.689,244.438C550.598,238.265 550.71,232.024 550.539,224.886" style="fill:none;stroke:#8c0000;stroke-width:1.96px;"/>
        <path d="M552.532,290.626C559.299,290.109 564.432,290.718 569.139,291.661C571.861,292.207 564.991,297.343 566.39,299.63C567.903,302.101 572.51,303.086 575.19,301.548C577.655,300.134 574.441,292.864 577.112,293.479C582.247,294.661 587.721,295.689 595.195,295.473C593.64,301.852 593.312,308.336 593.679,314.638C593.865,317.824 586.585,311.615 585.12,313.348C582.781,316.117 581.925,323.047 584.32,325.714C586.215,327.825 594.228,320.963 594.7,324.019C595.591,329.779 596.869,335.241 598.076,340.156C590.585,341.16 582.836,341.252 575.214,341.243C572.087,341.24 577.482,348.298 575.442,349.916C572.717,352.074 566.695,352.049 564.316,349.879C562.604,348.319 568.981,341.22 565.924,341.238C559.865,341.275 553.994,341.466 548.517,342.245C550.197,335.163 551.848,328.392 552.932,321.547C553.398,318.606 545.854,323.704 544.354,321.696C542.366,319.033 542.576,313.157 544.98,310.896C546.929,309.064 553.759,315.651 553.973,312.652C554.47,305.676 554.169,298.462 552.532,290.626" style="fill:none;stroke:#8c1200;stroke-width:1.96px;"/>
        <path d="M551.125,359.081C556.602,358.301 562.473,358.111 568.532,358.074C571.59,358.055 565.212,365.154 566.924,366.715C569.304,368.884 575.326,368.91 578.05,366.751C580.091,365.134 574.695,358.076 577.822,358.079C585.445,358.088 593.193,357.995 600.685,356.992C602.125,362.86 602.533,368.231 602.305,373.719C602.188,376.561 609.444,370.945 610.769,372.66C612.739,375.211 612.503,381.482 610.185,383.922C608.498,385.698 601.899,379.434 601.496,382.424C600.622,388.895 599.209,395.915 597.813,404.352C591.466,404.98 585.215,405.99 578.963,406.84C575.874,407.26 582.666,414.74 580.46,417.087C577.892,419.819 571.385,420.062 568.691,417.769C566.548,415.945 572.786,407.64 569.685,407.917C563.768,408.444 557.806,408.59 551.719,407.901C550.456,398.481 549.488,390.432 549.163,383.046C549.031,380.05 557.054,386.545 558.905,384.52C560.909,382.328 559.629,376.823 557.18,374.278C555.255,372.277 549.005,377.163 549.108,374.338C549.297,369.142 549.921,364.155 551.125,359.081" style="fill:none;stroke:#8c1200;stroke-width:1.96px;"/>
        <path d="M549.59,423.708C555.677,424.396 561.638,424.25 567.556,423.723C570.657,423.446 564.418,431.751 566.562,433.575C569.255,435.868 575.763,435.625 578.331,432.893C580.536,430.546 573.745,423.066 576.833,422.646C583.086,421.796 589.336,420.786 595.684,420.158C594.79,425.559 594.931,430.622 595.383,435.578C595.658,438.59 602.139,432.547 604.09,434.449C606.418,436.716 606.617,442.122 604.693,444.647C603.192,446.617 596.049,441.563 596.393,444.548C597.119,450.847 597.639,457.204 596.433,464.107C590.855,463.386 584.957,462.887 578.653,462.802C575.626,462.761 582.128,470.6 580.125,472.443C577.836,474.549 572.208,473.589 569.498,471.225C567.397,469.392 572.507,462.815 569.284,462.986C563.452,463.296 557.284,463.988 550.722,465.189C550.808,459.529 550.902,452.806 550.832,446.073C550.798,442.757 544.087,448.579 541.876,446.427C539.124,443.749 537.647,437.905 539.826,435.359C541.882,432.956 550.724,439.439 550.589,436.243C550.398,431.696 550.085,427.397 549.59,423.708" style="fill:none;stroke:#8b2900;stroke-width:1.96px;"/>
        <path d="M551.15,479.928C557.711,478.727 563.88,478.035 569.711,477.725C572.934,477.554 567.824,484.13 569.925,485.963C572.636,488.328 578.264,489.288 580.552,487.182C582.556,485.339 576.054,477.499 579.08,477.54C585.384,477.626 591.283,478.125 596.86,478.846C595.972,483.929 595.483,490.25 595.301,496.922C595.211,500.196 602.58,494.532 604.569,496.794C607.182,499.765 608.082,506.279 605.751,508.804C603.809,510.907 595.196,503.555 595.244,506.894C595.342,513.748 595.706,520.519 596.242,526.301C589.549,527.001 582.481,527.471 575.709,527.935C572.43,528.159 577.833,519.341 575.063,517.258C571.861,514.851 565.126,515.464 562.899,518.306C561.013,520.714 569.22,528.382 566.156,528.629C561.731,528.985 557.61,529.391 554.021,529.924C552.55,521.924 551.759,514.717 551.369,507.124C551.219,504.222 545.083,509.683 543.234,507.825C540.916,505.497 540.136,500.22 542.098,497.809C543.796,495.723 551.129,501.263 551.081,498.182C550.995,492.623 551.048,486.668 551.15,479.928" style="fill:none;stroke:#8b2900;stroke-width:1.96px;"/>
        <path d="M555.444,546.674C559.032,546.141 563.154,545.735 567.579,545.378C570.643,545.132 562.436,537.464 564.322,535.056C566.549,532.213 573.283,531.601 576.486,534.008C579.256,536.09 573.853,544.909 577.132,544.684C583.904,544.221 590.972,543.751 597.665,543.05C598.224,549.084 598.541,556.322 598.792,563.87C598.899,567.096 605.893,561.027 607.493,562.895C609.774,565.558 610.017,571.836 607.916,574.524C606.455,576.393 598.993,570.378 599.09,573.646C599.274,579.903 599.463,586.11 599.753,591.776C592.963,592.461 586.943,593.542 580.9,594.301C578.023,594.663 582.599,586.566 579.94,584.533C577.15,582.4 571.682,583.131 569.739,585.77C567.942,588.212 575.141,594.951 572.169,595.089C565.601,595.394 558.59,594.966 550.212,592.97C548.986,588.327 549.753,582.333 551.061,576.012C551.741,572.725 542.289,577.555 541.253,575.393C539.681,572.11 541.749,565.222 544.77,562.881C546.684,561.398 552.567,569.349 553.336,566.029C555.005,558.826 556.402,551.884 555.444,546.674" style="fill:none;stroke:#8b2900;stroke-width:1.96px;"/>
        <path d="M548.648,608.653C557.026,610.649 564.038,611.077 570.605,610.772C573.578,610.634 566.379,603.895 568.176,601.453C570.119,598.814 575.587,598.083 578.377,600.216C581.036,602.249 576.46,610.346 579.336,609.984C585.38,609.225 591.4,608.145 598.19,607.459C598.466,612.832 598.333,618.204 598.089,623.655C597.957,626.616 591.612,621.214 589.776,623.158C587.25,625.832 586.018,631.985 587.985,634.351C589.533,636.214 597.792,629.601 597.643,632.622C597.26,640.357 596.977,648.328 597.595,656.75C589.356,658.785 582.625,659.018 576.322,658.354C573.405,658.047 581.352,651.267 579.874,649.438C578.031,647.157 571.985,647.354 568.951,649.231C566.786,650.57 570.579,657.548 567.738,656.946C562.79,655.898 557.796,654.54 552.19,653.347C553.794,645.78 554.207,639.616 553.862,633.939C553.685,631.038 560.784,635.682 562.068,633.725C563.902,630.931 563.515,624.82 561.197,622.762C559.524,621.278 553.31,628.263 552.794,625.494C551.799,620.154 550.28,614.832 548.648,608.653" style="fill:none;stroke:#8a3c00;stroke-width:1.96px;"/>
        <path d="M555.047,669.681C560.652,670.874 565.647,672.232 570.595,673.28C573.436,673.881 569.643,666.903 571.807,665.564C574.842,663.687 580.888,663.491 582.731,665.772C584.209,667.601 576.262,674.381 579.179,674.688C585.482,675.352 592.213,675.119 600.452,673.084C600.809,677.951 601.489,683.321 602.114,688.967C602.458,692.077 609.116,685.796 611.661,687.933C614.574,690.378 615.922,696.103 613.765,698.748C611.68,701.305 602.786,695.272 603.034,698.512C603.564,705.44 603.728,712.577 602.911,719.552L554.78,719.552C556.189,711.724 556.028,704.435 555.524,697.598C555.288,694.405 562.918,700.203 564.297,698.345C566.228,695.742 565.643,689.696 563.248,687.186C561.494,685.348 554.977,691.31 554.716,688.305C554.142,681.694 553.809,675.518 555.047,669.681" style="fill:none;stroke:#8a3c00;stroke-width:1.96px;"/>
        <path d="M614.257,101.09L665.874,101.09C666.961,106.829 666.826,112.865 666.1,118.796C665.7,122.072 658.328,113.831 656.226,115.601C653.624,117.791 653.633,124.343 655.693,127.557C657.174,129.87 665.119,125.316 664.466,128.46C663.225,134.429 661.72,140.039 660.682,144.826C655.346,144.119 650.449,144.107 645.623,144.374C642.679,144.537 648.816,136.791 646.776,134.923C644.356,132.707 638.442,132.973 635.944,135.512C633.76,137.732 639.762,144.803 636.787,145.079C630.388,145.671 623.725,146.305 615.966,146.038C617.462,139.377 617.519,133.401 617.025,127.902C616.734,124.645 625.044,130.64 627.071,128.265C629.349,125.595 628.968,119.641 626.139,117.222C623.478,114.946 616.249,121.555 615.756,118.589C614.719,112.346 613.646,106.649 614.257,101.09" style="fill:none;stroke:#8c0000;stroke-width:1.96px;"/>
        <path d="M613.141,162.381C620.9,162.647 627.563,162.013 633.962,161.421C636.937,161.146 630.935,154.075 633.119,151.854C635.617,149.315 641.532,149.049 643.951,151.265C645.991,153.133 639.854,160.879 642.798,160.716C647.624,160.449 652.521,160.461 657.857,161.168C656.348,168.128 655.765,174.622 655.687,180.751C655.647,183.931 648.642,178.267 646.785,180.368C644.432,183.03 643.993,188.99 646.276,191.4C648.208,193.441 655.743,187.013 655.917,190.011C656.315,196.881 657.121,203.309 657.629,209.463C652.608,210.751 647.892,211.605 643.167,212.018C640.263,212.272 646.107,205.477 644.424,203.914C642.124,201.778 636.483,201.384 633.97,203.475C631.925,205.178 637.355,212.36 634.373,212.278C627.463,212.09 620.15,210.997 611.531,208.976C612.01,204.161 611.835,198.682 611.627,192.849C611.515,189.727 604.277,196.113 602.724,194.329C600.506,191.782 600.598,185.438 602.757,182.661C604.241,180.752 611.395,186.503 611.36,183.224C611.288,176.371 611.591,169.28 613.141,162.381" style="fill:none;stroke:#8c0000;stroke-width:1.96px;"/>
        <path d="M613.782,226.156C622.401,228.176 629.714,229.269 636.624,229.458C639.606,229.539 634.176,222.357 636.221,220.655C638.734,218.563 644.375,218.957 646.675,221.093C648.358,222.657 642.514,229.452 645.418,229.198C650.143,228.784 654.859,227.93 659.88,226.643C660.587,235.215 661.745,241.737 662.503,247.946C662.84,250.706 668.833,244.931 670.717,246.687C673.157,248.962 674.143,254.668 672.264,257.044C670.729,258.987 663.098,253.405 663.202,256.194C663.415,261.899 662.984,267.983 661.268,275.752C653.65,275.375 646.593,275.594 639.859,276.009C636.74,276.202 643.198,282.468 641.622,284.06C639.261,286.445 633.151,287.394 630.417,285.548C628.451,284.22 633.69,276.436 630.685,276.674C624.579,277.156 618.659,277.649 612.726,277.821C614.641,269.962 614.827,262.172 614.534,254.623C614.413,251.486 607.419,257.98 605.27,255.986C602.754,253.652 602.283,247.943 604.469,245.284C606.376,242.962 614.209,248.39 614.012,245.348C613.579,238.644 613.181,232.202 613.782,226.156" style="fill:none;stroke:#8c0000;stroke-width:1.96px;"/>
        <path d="M611.775,293.969C617.709,293.798 623.629,293.305 629.735,292.822C632.74,292.585 627.501,300.369 629.466,301.696C632.201,303.543 638.311,302.593 640.672,300.209C642.248,298.616 635.79,292.35 638.909,292.158C645.643,291.742 652.699,291.523 660.318,291.9C659.082,297.499 658.508,302.71 658.379,307.795C658.301,310.851 665.6,304.506 667.55,306.465C669.951,308.877 670.225,314.836 667.983,317.44C666.12,319.604 658.385,313.861 658.582,316.881C659.006,323.377 659.956,329.924 660.964,337.085C654.123,338.152 646.834,338.114 639.456,337.984C636.293,337.929 642.78,330.429 640.909,328.785C638.226,326.428 631.463,326.288 628.722,328.553C626.804,330.139 633.114,337.856 629.946,337.847C624.777,337.832 619.64,337.985 614.657,338.653C613.45,333.737 612.172,328.275 611.281,322.516C610.809,319.46 602.796,326.321 600.901,324.211C598.506,321.543 599.361,314.613 601.701,311.844C603.165,310.111 610.445,316.321 610.26,313.135C609.892,306.833 610.22,300.348 611.775,293.969" style="fill:none;stroke:#8c1200;stroke-width:1.96px;"/>
        <path d="M617.34,353.105C622.323,352.438 627.461,352.285 632.63,352.3C635.797,352.309 629.487,344.592 631.406,343.006C634.146,340.74 640.909,340.88 643.593,343.238C645.463,344.881 638.976,352.381 642.139,352.437C649.517,352.566 656.806,352.604 663.648,351.538C664.391,356.821 664.541,362.067 664.598,367.642C664.627,370.504 671.073,364.238 672.779,365.857C675.164,368.122 676.163,374.029 674.139,376.7C672.451,378.926 664.632,373.454 664.681,376.54C664.786,383.228 665.097,390.557 666.303,399.035C661.123,398.329 655.42,398.075 649.501,398.113C646.381,398.133 651.606,391.054 649.591,389.564C646.611,387.36 639.977,387.09 637.58,389.297C635.971,390.779 643.202,398.233 640.006,398.391C631.309,398.82 622.497,399.671 614.469,400.465C615.864,392.029 617.278,385.009 618.151,378.538C618.555,375.547 625.154,381.811 626.84,380.036C629.158,377.595 629.394,371.325 627.424,368.774C626.1,367.058 618.843,372.674 618.961,369.833C619.189,364.344 618.781,358.974 617.34,353.105" style="fill:none;stroke:#8c1200;stroke-width:1.96px;"/>
        <path d="M614.459,418.243C622.487,417.449 631.299,416.597 639.996,416.168C643.191,416.011 635.961,408.557 637.57,407.074C639.967,404.868 646.601,405.137 649.581,407.341C651.596,408.831 646.371,415.91 649.491,415.89C655.41,415.853 661.113,416.106 666.293,416.813C667.336,424.142 667.109,430.251 666.531,436.066C666.247,438.915 673.121,435.044 674.63,437.349C676.464,440.151 676.141,445.484 673.867,447.274C671.967,448.77 665.879,441.694 665.535,444.511C664.756,450.872 664.097,457.428 664.801,465.432C658.402,464.744 653.063,464.457 648,464.277C645.142,464.176 651.03,471.21 649.53,472.392C647.251,474.187 641.38,473.551 638.885,471.458C637.25,470.087 642.373,464.108 639.551,464.022C632.495,463.806 625.114,463.472 615.208,462.192C616.414,455.288 615.894,448.932 615.168,442.633C614.823,439.648 621.967,444.702 623.468,442.732C625.392,440.207 625.193,434.801 622.865,432.533C620.914,430.632 614.433,436.675 614.158,433.663C613.705,428.707 613.565,423.644 614.459,418.243" style="fill:none;stroke:#8b2900;stroke-width:1.96px;"/>
        <path d="M614.713,480.555C624.619,481.835 632.001,482.169 639.057,482.385C641.879,482.471 636.756,488.45 638.391,489.822C640.886,491.914 646.757,492.55 649.035,490.755C650.536,489.573 644.648,482.539 647.506,482.641C652.568,482.821 657.908,483.108 664.307,483.796C664.918,490.745 663.581,498.292 662.255,505.651C661.677,508.861 669.111,504.453 670.787,506.861C672.986,510.019 673.574,516.221 671.05,518.283C668.72,520.185 661.101,512.035 660.689,515.108C660.012,520.167 659.782,524.953 660.722,529.177C654.502,529.467 648.278,529.18 642.222,528.781C638.985,528.567 644.729,535.934 642.679,537.653C639.714,540.14 632.86,541.112 630.36,538.727C628.318,536.779 635.796,528.322 632.682,528.115C626.065,527.677 619.785,527.414 614.095,528.01C613.559,522.228 613.195,515.458 613.097,508.603C613.049,505.264 621.662,512.616 623.604,510.513C625.935,507.988 625.035,501.474 622.422,498.503C620.433,496.241 613.064,501.905 613.154,498.631C613.336,491.959 613.825,485.639 614.713,480.555" style="fill:none;stroke:#8b2900;stroke-width:1.96px;"/>
        <path d="M615.042,544.426C620.732,543.83 627.012,544.093 633.629,544.531C636.743,544.738 629.265,553.195 631.307,555.143C633.807,557.528 640.661,556.556 643.626,554.069C645.676,552.35 639.932,544.983 643.169,545.197C649.225,545.596 655.449,545.883 661.669,545.592C663.274,552.808 664.797,559.673 665.96,566.38C666.484,569.405 672.766,563.03 675.369,565.062C678.118,567.209 678.977,572.39 676.957,574.968C675.019,577.442 666.935,572.398 667.287,575.376C668.049,581.816 668.348,588.189 667.928,594.676C661.568,593.203 654.54,592.321 646.764,592.011C643.732,591.89 649.633,598.763 647.661,600.778C645.232,603.262 639.633,604.162 637.047,601.944C634.646,599.885 640.585,591.856 637.32,591.908C631.041,592.008 624.323,592.426 617.131,593.152C616.84,587.485 616.651,581.278 616.467,575.022C616.371,571.753 623.833,577.768 625.293,575.899C627.394,573.211 627.151,566.934 624.87,564.27C623.27,562.402 616.276,568.471 616.169,565.246C615.919,557.698 615.601,550.459 615.042,544.426" style="fill:none;stroke:#8b2900;stroke-width:1.96px;"/>
        <path d="M615.5,609.835C622.692,609.109 629.41,608.692 635.689,608.592C638.954,608.54 633.015,616.568 635.416,618.628C638.002,620.845 643.601,619.945 646.03,617.462C648.002,615.446 642.101,608.573 645.133,608.694C652.909,609.004 659.937,609.886 666.297,611.36C665.928,617.063 665.847,623.064 665.691,629.2C665.611,632.341 672.485,626.713 674.074,628.603C676.369,631.333 677.056,637.593 674.873,640.119C673.184,642.073 665.51,635.518 665.341,638.709C664.996,645.236 664.361,651.819 663.019,658.27C655.789,659.195 649.307,658.855 643.06,658.379C640.1,658.154 644.452,664.899 642.488,666.15C639.621,667.976 633.64,667.788 631.589,665.684C630.259,664.319 637.194,657.899 634.286,657.733C628.015,657.377 621.737,657.439 614.905,659.126C614.286,650.703 614.569,642.732 614.952,634.998C615.102,631.977 606.843,638.59 605.295,636.727C603.328,634.361 604.56,628.207 607.086,625.533C608.922,623.59 615.267,628.992 615.399,626.031C615.642,620.58 615.775,615.208 615.5,609.835" style="fill:none;stroke:#8a3c00;stroke-width:1.96px;"/>
        <path d="M616.076,674.38C622.908,672.693 629.186,672.63 635.457,672.987C638.365,673.152 631.43,679.573 632.76,680.938C634.811,683.042 640.792,683.23 643.659,681.404C645.623,680.153 641.271,673.408 644.231,673.633C650.478,674.108 656.96,674.449 664.19,673.523C662.526,681.524 662.137,688.997 662.346,695.974C662.44,699.114 669.837,692.778 671.887,694.882C674.211,697.267 673.881,702.963 671.642,705.516C669.852,707.557 662.654,702.153 662.928,705.095C663.449,710.691 664.183,715.935 664.706,720.847L618.534,720.847C619.352,713.873 619.187,706.736 618.658,699.808C618.41,696.568 627.303,702.601 629.389,700.044C631.545,697.399 630.198,691.674 627.285,689.228C624.74,687.091 618.082,693.373 617.738,690.262C617.113,684.617 616.433,679.247 616.076,674.38" style="fill:none;stroke:#8a3c00;stroke-width:1.96px;"/>
        <path d="M680.967,103.49L725.358,103.49C725.655,109.732 726.299,115.42 726.862,121.084C727.153,124.014 719.27,118.736 717.783,120.796C715.967,123.311 717.143,128.859 719.599,131.142C721.446,132.858 727.423,126.937 727.611,129.927C728.015,136.354 728.045,143.088 727.11,150.858C720.834,152.497 713.629,152.395 705.661,151.547C702.63,151.224 707.588,159.706 705.177,161.3C702.271,163.219 696.272,161.973 694.039,159.225C692.296,157.081 699.488,150.794 696.245,150.31C689.798,149.349 682.95,148.177 675.775,147.226C676.813,142.44 678.318,136.83 679.559,130.86C680.213,127.716 672.268,132.27 670.786,129.958C668.726,126.743 668.717,120.191 671.319,118.001C673.422,116.231 680.793,124.472 681.194,121.196C681.919,115.266 682.055,109.23 680.967,103.49" style="fill:none;stroke:#8c0000;stroke-width:1.96px;"/>
        <path d="M674.484,162.485C681.659,163.436 688.507,164.608 694.954,165.569C698.197,166.053 691.005,172.34 692.748,174.485C694.981,177.232 700.98,178.478 703.886,176.559C706.297,174.966 701.339,166.483 704.37,166.806C712.337,167.654 719.542,167.756 725.819,166.117C725.094,172.14 725.064,177.504 725.068,182.991C725.071,185.861 717.515,179.205 715.196,181.277C712.755,183.458 712.849,189.083 715.302,191.717C717.58,194.164 725.082,188.765 725.008,191.815C724.875,197.313 724.464,203.286 723.22,210.388C717.238,210.872 710.269,210.19 702.934,209.63C699.738,209.387 705.907,217.126 703.807,219.033C701.178,221.419 695.075,221.665 692.421,219.176C690.105,217.004 696.473,209.166 693.189,209.075C686.823,208.898 680.387,209.208 674.256,210.781C673.748,204.626 672.942,198.198 672.544,191.328C672.37,188.33 664.835,194.758 662.903,192.718C660.62,190.307 661.059,184.347 663.412,181.685C665.269,179.584 672.274,185.248 672.314,182.068C672.392,175.939 672.975,169.445 674.484,162.485" style="fill:none;stroke:#8c0000;stroke-width:1.96px;"/>
        <path d="M676.194,226.21C682.326,224.638 688.761,224.328 695.128,224.504C698.411,224.596 692.044,232.434 694.359,234.605C697.014,237.095 703.117,236.849 705.745,234.463C707.846,232.555 701.677,224.816 704.872,225.06C712.208,225.62 719.177,226.301 725.159,225.818C723.53,235.122 723.213,242.695 723.786,250.224C724.003,253.085 730.367,247.267 732.321,249.14C734.87,251.582 735.86,257.559 733.98,259.995C732.535,261.866 724.349,255.94 724.8,258.881C725.69,264.679 726.989,270.811 728.519,277.989C720.416,275.919 713.202,275.416 705.761,275.367C702.833,275.348 707.831,268.253 705.473,266.182C702.769,263.808 697.115,263.555 694.948,265.873C692.991,267.966 699.87,275.399 696.804,275.453C690.935,275.557 684.687,275.67 677.583,275.319C679.298,267.55 679.729,261.466 679.517,255.761C679.413,252.972 687.043,258.554 688.579,256.612C690.457,254.235 689.472,248.529 687.032,246.255C685.148,244.499 679.155,250.274 678.818,247.513C678.06,241.305 676.902,234.783 676.194,226.21" style="fill:none;stroke:#8c0000;stroke-width:1.96px;"/>
        <path d="M677.273,290.117C684.377,290.469 690.625,290.355 696.494,290.252C699.561,290.198 692.681,282.764 694.638,280.672C696.805,278.354 702.46,278.607 705.163,280.98C707.521,283.051 702.524,290.146 705.452,290.166C712.893,290.214 720.106,290.718 728.209,292.787C729.402,298.379 728.979,303.82 728.056,309.072C727.505,312.203 720.868,305.28 718.284,307.32C715.427,309.575 714.672,315.359 716.627,318.093C718.27,320.389 726.777,315.266 726.107,318.255C724.828,323.954 723.761,329.38 724.54,334.481C715.023,334.807 707.215,334.522 700.149,334.36C697.194,334.292 702.082,328.048 699.967,326.075C697.445,323.723 692.156,322.902 690.065,324.952C688.126,326.852 694.368,334.246 691.601,334.275C686.985,334.324 682.534,334.583 677.919,335.303C676.911,328.141 675.961,321.595 675.537,315.099C675.34,312.078 683.075,317.821 684.938,315.658C687.18,313.054 686.906,307.094 684.505,304.683C682.555,302.724 675.256,309.068 675.334,306.013C675.462,300.928 676.037,295.717 677.273,290.117" style="fill:none;stroke:#8c1200;stroke-width:1.96px;"/>
        <path d="M678.411,352.935C683.025,352.216 687.477,351.957 692.093,351.908C694.859,351.879 688.618,344.485 690.556,342.585C692.647,340.535 697.937,341.356 700.458,343.708C702.573,345.681 697.685,351.925 700.641,351.993C707.706,352.155 715.515,352.44 725.031,352.113C726.256,360.134 727.366,367.966 727.834,375.472C728.026,378.554 734.871,372.012 736.909,373.913C739.194,376.045 739.191,381.341 736.976,384C735.012,386.356 728.109,381.582 728.048,384.545C727.944,389.601 727.418,394.468 726.288,399.1C719.684,397.974 713.688,398.449 707.672,399.201C704.714,399.571 712.519,406.321 710.804,408.689C708.847,411.392 702.868,412.096 699.844,410.013C697.203,408.193 701.751,400.008 698.708,400.355C693.232,400.978 687.497,401.31 681.066,400.433C679.86,391.955 679.55,384.625 679.444,377.937C679.395,374.851 687.215,380.323 688.902,378.097C690.926,375.427 689.927,369.519 687.542,367.255C685.836,365.635 679.39,371.902 679.361,369.039C679.304,363.464 679.154,358.219 678.411,352.935" style="fill:none;stroke:#8c1200;stroke-width:1.96px;"/>
        <path d="M682.783,417.453C689.214,418.331 694.949,417.999 700.425,417.375C703.468,417.029 698.92,425.213 701.561,427.033C704.585,429.117 710.564,428.412 712.521,425.71C714.235,423.341 706.431,416.592 709.388,416.222C715.405,415.47 721.401,414.995 728.005,416.12C726.333,422.974 725.22,430.676 724.814,438.65C724.652,441.813 732.609,435.88 734.308,437.998C736.561,440.809 736.237,447.333 733.828,449.891C732.091,451.736 724.603,445.019 724.673,448.233C724.824,455.067 725.519,461.932 726.85,468.482C719.03,466.475 713.151,466.1 707.521,466.183C704.762,466.224 709.913,460.125 708.146,458.446C705.919,456.331 700.845,455.711 698.615,457.723C696.601,459.541 702.063,466.375 699.224,466.497C694.094,466.719 688.508,466.849 681.291,466.073C680.587,458.069 681.246,451.513 682.025,445.152C682.369,442.335 688.457,449.411 690.358,447.915C692.631,446.124 692.954,440.792 691.12,437.99C689.611,435.685 682.737,439.556 683.021,436.707C683.599,430.892 683.826,424.783 682.783,417.453" style="fill:none;stroke:#8b2900;stroke-width:1.96px;"/>
        <path d="M680.879,483.01C688.096,483.786 693.682,483.656 698.812,483.434C701.651,483.312 696.189,476.478 698.203,474.66C700.433,472.648 705.507,473.268 707.734,475.383C709.502,477.062 704.35,483.161 707.109,483.12C712.74,483.037 718.618,483.412 726.438,485.419C727.83,492.269 727.962,497.941 727.573,503.159C727.353,506.103 735.172,500.562 736.289,502.252C737.906,504.697 736.472,510.576 734.037,512.935C732.417,514.504 726.968,508.902 726.549,511.687C725.632,517.789 724.556,523.819 724.719,531.143C716.498,533.218 709.009,532.766 701.974,531.685C698.914,531.215 704.46,539.466 702.824,540.459C700.164,542.074 693.783,540.742 691.334,538.146C689.719,536.433 695.941,530.626 693.03,530.074C687.615,529.048 682.418,528.152 677.294,528.391C676.354,524.167 676.585,519.381 677.262,514.323C677.673,511.249 685.292,519.4 687.622,517.497C690.147,515.435 689.558,509.233 687.36,506.075C685.683,503.668 678.249,508.075 678.827,504.866C680.153,497.506 681.49,489.96 680.879,483.01" style="fill:none;stroke:#8b2900;stroke-width:1.96px;"/>
        <path d="M677.076,545.789C682.201,545.549 687.397,546.446 692.813,547.472C695.723,548.023 689.501,553.831 691.116,555.543C693.565,558.139 699.947,559.472 702.607,557.857C704.242,556.863 698.697,548.612 701.756,549.082C708.791,550.163 716.281,550.616 724.501,548.541C724.658,555.639 725.037,561.974 725.363,567.78C725.548,571.068 717.441,565.705 715.326,568.322C713.107,571.068 713.865,576.552 716.487,578.766C718.819,580.734 725.715,574.186 725.816,577.178C726.07,584.74 725.897,591.495 724.492,598.134C720.116,598.742 715.192,598.863 710.113,598.639C706.954,598.5 712.543,606.989 710.127,608.772C707.354,610.817 701.419,609.55 699.025,606.821C697.135,604.665 703.735,598.227 700.551,597.855C694.466,597.144 688.507,596.071 683.336,594.872C683.756,588.386 683.456,582.012 682.695,575.572C682.343,572.594 690.426,577.638 692.364,575.164C694.385,572.586 693.526,567.405 690.776,565.258C688.174,563.226 681.892,569.601 681.368,566.576C680.205,559.869 678.682,553.004 677.076,545.789" style="fill:none;stroke:#8b2900;stroke-width:1.96px;"/>
        <path d="M683.879,610.843C689.051,612.042 695.009,613.115 701.095,613.826C704.279,614.198 697.678,620.636 699.569,622.792C701.963,625.521 707.898,626.788 710.67,624.743C713.086,622.96 707.498,614.471 710.657,614.61C715.736,614.834 720.66,614.713 725.035,614.105C724.059,618.715 723.933,623.401 724.325,628.106C724.584,631.222 730.755,625.082 732.561,626.831C735.176,629.365 736.506,635.583 734.787,638.242C733.622,640.043 725.069,634.347 725.685,637.464C726.864,643.435 728.52,649.379 729.972,655.18C725.231,654.018 719.653,653.741 713.753,653.956C710.602,654.07 718.67,662.343 716.844,664.24C714.575,666.598 707.863,665.78 704.678,663.385C702.399,661.672 707.36,654.325 704.104,654.66C695.949,655.5 687.707,656.844 680.601,657.753C681.944,651.303 682.578,644.72 682.924,638.192C683.093,635.002 690.767,641.557 692.455,639.603C694.638,637.077 693.951,630.817 691.656,628.087C690.067,626.197 683.193,631.825 683.273,628.684C683.43,622.548 683.51,616.546 683.879,610.843" style="fill:none;stroke:#8a3c00;stroke-width:1.96px;"/>
        <path d="M679.676,672.972C686.781,672.062 695.024,670.718 703.178,669.879C706.435,669.543 701.474,676.89 703.752,678.604C706.937,680.999 713.65,681.816 715.918,679.459C717.744,677.561 709.677,669.288 712.827,669.174C718.728,668.959 724.305,669.237 729.047,670.399C731.207,679.032 731.463,686.233 731.101,692.876C730.941,695.819 724.617,689.504 722.83,691.17C720.411,693.426 719.54,699.327 721.425,701.898C722.882,703.885 730.659,698.652 730.368,701.451C729.726,707.625 729.038,713.635 729.502,720.296L680.191,720.296C679.669,715.384 678.935,710.14 678.414,704.543C678.14,701.601 685.337,707.005 687.128,704.964C689.367,702.411 689.696,696.715 687.372,694.33C685.322,692.226 677.925,698.562 677.832,695.422C677.623,688.445 678.012,680.972 679.676,672.972" style="fill:none;stroke:#8a3c00;stroke-width:1.96px;"/>
        <path d="M743.354,103.199L790.128,103.199C789.612,108.732 789.801,114.069 790.152,119.362C790.354,122.405 796.566,116.338 798.299,118.051C800.817,120.538 802.091,126.705 800.221,129.311C798.82,131.263 790.61,125.434 790.817,128.477C791.332,136.053 791.543,143.72 789.863,151.922C782.63,153.624 776.579,152.732 770.608,151.548C767.723,150.976 771.27,158.452 769.064,159.54C765.96,161.072 759.987,160.085 758.193,157.672C756.987,156.051 764.858,150.336 761.886,149.888C756.808,149.123 751.422,148.917 745.106,150.566C746.041,142.797 746.012,136.062 745.607,129.636C745.419,126.646 739.443,132.566 737.596,130.85C735.139,128.567 733.964,123.019 735.779,120.505C737.267,118.445 745.149,123.722 744.858,120.792C744.295,115.129 743.651,109.44 743.354,103.199" style="fill:none;stroke:#8c0000;stroke-width:1.96px;"/>
        <path d="M743.375,167.321C749.69,165.672 755.077,165.878 760.155,166.643C763.126,167.091 755.256,172.805 756.462,174.427C758.256,176.84 764.229,177.826 767.333,176.295C769.539,175.207 765.992,167.731 768.876,168.303C774.848,169.486 780.899,170.379 788.132,168.677C786.146,178.381 787.516,185.445 789.096,192.244C789.733,194.983 782.324,190.528 781.268,192.271C779.828,194.651 780.925,199.708 783.334,201.762C785.21,203.362 790.403,197.679 790.902,200.487C791.785,205.459 792.129,210.781 790.793,217.317C783.889,218.585 776.899,217.432 769.776,215.824C766.757,215.142 772.042,224.157 769.756,225.688C766.877,227.614 760.54,226.532 758.262,223.531C756.326,220.981 763.714,214.379 760.643,213.683C754.155,212.213 747.544,211.046 740.777,211.593C742.02,204.49 742.431,198.517 742.565,193.019C742.638,189.969 735.137,195.368 732.859,192.922C730.406,190.287 730.311,184.663 732.753,182.481C735.071,180.409 742.627,187.066 742.625,184.195C742.621,178.708 742.65,173.344 743.375,167.321" style="fill:none;stroke:#8c0000;stroke-width:1.96px;"/>
        <path d="M740.48,228.23C747.247,227.683 753.858,228.85 760.346,230.32C763.417,231.016 756.029,237.618 757.965,240.168C760.243,243.169 766.58,244.251 769.459,242.325C771.746,240.794 766.46,231.779 769.479,232.461C776.602,234.069 783.592,235.222 790.496,233.954C789.386,239.386 788.639,245.539 788.228,251.957C788.029,255.069 780.1,249.309 777.793,251.882C775.383,254.569 776.07,260.319 778.588,262.705C780.714,264.719 787.91,258.243 787.867,261.426C787.777,268.044 788.018,274.704 788.564,280.935C783.575,280.255 778.765,280.433 773.963,280.819C770.949,281.061 777.398,288.612 775.188,290.863C772.607,293.493 766.214,293.647 763.638,291.338C761.571,289.486 767.938,281.385 764.887,281.629C758.21,282.163 751.343,282.316 743.84,280.4C742.31,273.223 741.011,267.09 740.121,261.292C739.67,258.351 747.856,264.278 749.301,262.406C751.181,259.971 750.19,253.994 747.642,251.551C745.688,249.679 739.324,255.497 739.107,252.636C738.534,245.106 738.851,237.533 740.48,228.23" style="fill:none;stroke:#8c0000;stroke-width:1.96px;"/>
        <path d="M743.839,295.581C751.342,297.497 758.209,297.344 764.886,296.81C767.937,296.566 761.57,304.666 763.637,306.519C766.212,308.828 772.606,308.674 775.187,306.044C777.397,303.792 770.948,296.242 773.962,296C778.764,295.614 783.574,295.436 788.563,296.116C789.071,301.929 789.23,307.504 789.172,313.104C789.14,316.101 782.328,310.296 780.598,312.181C778.412,314.561 778.351,320.132 780.429,322.626C782.052,324.573 789.047,319.105 788.911,322.157C788.654,327.952 788.247,333.92 787.828,340.338C781.383,340.104 774.477,339.327 767.252,338.605C764.203,338.301 770.594,331.83 768.856,330.069C766.545,327.728 760.736,327.317 758.008,329.241C755.98,330.672 761.096,338.006 757.944,337.765C752.152,337.324 746.205,337.068 740.169,337.275C739.391,332.174 740.458,326.748 741.736,321.049C742.407,318.06 733.899,323.184 732.257,320.887C730.301,318.153 731.057,312.369 733.914,310.114C736.498,308.074 743.135,314.997 743.685,311.867C744.609,306.614 745.031,301.173 743.839,295.581" style="fill:none;stroke:#8c1200;stroke-width:1.96px;"/>
        <path d="M739.151,351.604C745.187,351.397 751.134,351.653 756.926,352.095C760.078,352.335 754.961,345.001 756.99,343.57C759.718,341.646 765.527,342.058 767.838,344.399C769.576,346.159 763.184,352.63 766.234,352.935C773.458,353.656 780.364,354.433 786.809,354.667C786.421,360.62 786.228,367.791 785.987,375.345C785.884,378.586 777.792,370.987 775.294,373.164C772.452,375.642 772.035,382.242 774.62,385.255C776.944,387.964 785.772,381.897 785.632,385.213C785.365,391.53 784.997,397.862 784.396,403.75C778.495,404.475 772.088,404.021 765.377,403.06C762.297,402.619 769.74,396.601 768.156,394.375C766.011,391.362 759.848,389.233 756.8,391.009C754.21,392.518 759.152,402.07 755.963,401.48C750.866,400.536 745.654,399.485 740.407,398.59C741.537,393.959 742.063,389.091 742.168,384.036C742.229,381.073 749.132,385.847 751.095,383.49C753.311,380.832 753.314,375.536 751.028,373.404C748.991,371.503 742.145,378.045 741.953,374.962C741.485,367.457 740.375,359.625 739.151,351.604" style="fill:none;stroke:#8c1200;stroke-width:1.96px;"/>
        <path d="M743.342,415.007C748.588,415.901 753.8,416.953 758.897,417.896C762.087,418.487 757.144,408.935 759.734,407.426C762.782,405.649 768.946,407.778 771.09,410.791C772.675,413.017 765.231,419.035 768.311,419.476C775.022,420.438 781.429,420.891 787.33,420.167C786.786,425.488 786.021,430.74 785.501,436.281C785.232,439.138 793.007,433.07 794.194,434.639C795.995,437.021 795.015,443.183 792.705,445.806C791.179,447.539 785.028,442.072 784.953,445.132C784.802,451.296 785.172,457.972 786.583,465.563C780.682,465.248 775.176,465.882 769.861,466.647C766.782,467.09 771.891,459.231 769.731,457.691C767.082,455.801 761.502,456.524 759.264,459.088C757.396,461.227 763.767,467.576 760.776,467.948C754.593,468.716 748.514,468.992 742.187,467.368C740.856,460.819 740.161,453.953 740.01,447.119C739.939,443.906 747.428,450.622 749.165,448.777C751.574,446.219 751.898,439.695 749.645,436.885C747.946,434.766 739.989,440.699 740.151,437.536C740.557,429.562 741.67,421.86 743.342,415.007" style="fill:none;stroke:#8b2900;stroke-width:1.96px;"/>
        <path d="M743.123,485.913C749.45,487.537 755.529,487.261 761.712,486.493C764.703,486.121 758.332,479.772 760.2,477.633C762.439,475.068 768.018,474.346 770.667,476.235C772.827,477.776 767.718,485.634 770.797,485.191C776.112,484.427 781.618,483.793 787.52,484.108C788.365,488.651 788.869,493.503 789.32,498.544C789.594,501.593 797.674,493.881 799.588,495.764C801.933,498.072 801.062,504.747 798.702,507.774C797.06,509.879 789.848,504.712 790.146,507.873C790.832,515.141 791.754,522.636 793.686,530.042C787.514,531.053 780.874,531.104 774.257,530.907C770.973,530.81 777.119,539.418 774.472,541.828C771.838,544.226 766.168,543.373 763.67,540.546C761.36,537.931 767.694,530.651 764.48,530.518C755.959,530.167 747.896,529.998 741.404,531.637C741.241,524.313 742.317,518.283 743.234,512.181C743.653,509.396 749.103,514.998 750.722,513.429C753.157,511.07 754.591,505.19 752.975,502.746C751.857,501.056 744.038,506.597 744.258,503.653C744.647,498.435 744.515,492.763 743.123,485.913" style="fill:none;stroke:#8b2900;stroke-width:1.96px;"/>
        <path d="M740.096,547.89C746.588,546.251 754.651,546.419 763.172,546.771C766.386,546.903 760.052,554.184 762.362,556.798C764.861,559.626 770.53,560.478 773.164,558.08C775.811,555.67 769.665,547.062 772.949,547.16C779.567,547.357 786.206,547.306 792.379,546.294C794.086,552.839 793.557,559.018 792.293,565.024C791.64,568.127 800.968,564.576 802.242,567.431C803.687,570.67 801.145,576.282 798.073,577.98C795.757,579.259 790.79,571.183 789.952,574.221C788.363,579.972 786.814,585.655 786.709,591.45C780.312,593.04 773.026,594.016 765.609,594.802C762.464,595.136 767.789,587.194 765.742,585.803C762.86,583.843 756.477,584.482 754.081,586.964C752.392,588.715 759.295,595.435 756.16,595.732C750.586,596.261 745.119,596.784 740.087,597.483C741.492,590.843 741.665,584.089 741.411,576.527C741.31,573.535 734.414,580.083 732.082,578.115C729.46,575.901 728.702,570.417 730.921,567.671C733.036,565.053 741.143,570.417 740.958,567.129C740.633,561.323 740.254,554.988 740.096,547.89" style="fill:none;stroke:#8b2900;stroke-width:1.96px;"/>
        <path d="M740.411,613.526C745.444,612.828 750.91,612.305 756.484,611.776C759.619,611.478 752.716,604.758 754.406,603.008C756.801,600.525 763.184,599.886 766.066,601.846C768.113,603.238 762.788,611.179 765.934,610.845C773.351,610.059 780.636,609.083 787.033,607.493C786.925,613.473 788.169,620.219 789.472,627.424C790.03,630.515 797.718,623.494 800.083,625.745C802.772,628.304 802.481,634.867 800.23,637.662C798.609,639.675 790.6,633.691 791.077,636.926C791.929,642.692 792.49,648.65 792.183,654.664C786.697,655.199 781.784,655.861 777.013,656.354C774.098,656.655 780.311,663.341 778.544,665.029C776.169,667.3 770.066,667.443 767.512,665.435C765.715,664.023 771.236,656.892 768.329,656.999C761.378,657.255 754.166,656.763 745.348,654.601C743.896,648.8 742.24,642.857 741.061,636.886C740.445,633.768 748.998,639.464 750.162,637.663C751.881,635.004 750.552,628.786 747.937,626.252C746.131,624.503 739.959,630.643 739.7,627.527C739.309,622.822 739.435,618.136 740.411,613.526" style="fill:none;stroke:#8a3c00;stroke-width:1.96px;"/>
        <path d="M744.419,670.625C753.237,672.786 760.449,673.278 767.4,673.022C770.307,672.916 764.786,680.046 766.583,681.458C769.137,683.466 775.24,683.323 777.615,681.052C779.382,679.364 773.169,672.678 776.084,672.377C780.855,671.885 785.768,671.222 791.254,670.687C790.947,676.676 791.149,682.563 791.393,688.914C791.505,691.828 784.607,686.005 783.254,687.628C781.1,690.21 780.663,696.65 782.777,699.244C784.256,701.059 791.626,694.84 791.71,698.004C791.888,704.664 791.906,712 791.345,720.522L744.874,720.522C744.41,713.86 745.098,707.851 745.74,701.677C746.031,698.878 738.254,704.111 736.797,702.124C734.912,699.553 735.783,693.651 738.202,691.396C739.989,689.73 746.313,696.044 746.474,693.102C746.836,686.459 746.58,679.258 744.419,670.625" style="fill:none;stroke:#8a3c00;stroke-width:1.96px;"/>
        <path d="M806.061,103.253L853.181,103.253L853.181,149.274C847.624,149.558 842.572,149.409 837.513,149.291C834.64,149.224 840.035,156.811 837.613,159.099C835.17,161.408 829.948,160.998 827.743,158.525C825.661,156.189 831.765,149.168 828.793,149.206C822.003,149.294 814.711,149.879 805.797,151.977C807.476,143.774 807.265,136.107 806.75,128.531C806.543,125.488 814.753,131.317 816.154,129.365C818.025,126.759 816.75,120.592 814.233,118.105C812.5,116.392 806.288,122.459 806.086,119.416C805.734,114.123 805.546,108.786 806.061,103.253" style="fill:none;stroke:#8c0000;stroke-width:1.96px;"/>
        <path d="M804.493,168.078C813.407,165.98 820.699,165.395 827.489,165.307C830.46,165.269 824.357,172.291 826.439,174.626C828.644,177.099 833.866,177.509 836.309,175.201C838.73,172.912 833.336,165.326 836.209,165.393C841.268,165.51 846.32,165.66 851.877,165.375L851.877,211.056C844.107,212.082 838.02,212.637 831.941,213.259C829.205,213.538 835.414,219.539 833.958,221.04C831.926,223.136 826.403,223.355 823.809,221.642C822.017,220.457 826.471,213.831 823.585,214.187C818.767,214.78 813.526,215.548 807.154,216.718C808.49,210.182 808.145,204.859 807.262,199.888C806.764,197.08 801.57,202.763 799.694,201.163C797.286,199.109 796.188,194.052 797.629,191.672C798.685,189.928 806.093,194.384 805.457,191.645C803.877,184.846 802.506,177.782 804.493,168.078" style="fill:none;stroke:#8c0000;stroke-width:1.96px;"/>
        <path d="M806.449,231.953C812.822,230.783 818.062,230.015 822.88,229.421C825.766,229.066 821.312,235.692 823.104,236.876C825.698,238.59 831.221,238.37 833.254,236.275C834.709,234.774 828.5,228.773 831.236,228.493C837.315,227.872 843.402,227.317 851.172,226.291L851.172,273.108C845.864,271.747 841.04,272.331 836.187,273.573C833.405,274.285 837.306,265.425 835.146,264.435C832.432,263.192 827.188,265.679 825.331,268.599C823.972,270.734 830.614,275.213 827.716,276.115C820.967,278.217 813.64,280.178 804.516,278.934C803.971,272.702 803.73,266.043 803.819,259.425C803.862,256.241 796.667,262.717 794.541,260.703C792.022,258.317 791.335,252.568 793.745,249.881C796.053,247.308 803.982,253.067 804.181,249.955C804.591,243.538 805.339,237.384 806.449,231.953" style="fill:none;stroke:#8c0000;stroke-width:1.96px;"/>
        <path d="M804.973,293.306C814.097,294.55 821.424,292.59 828.173,290.488C831.071,289.586 824.429,285.107 825.788,282.972C827.645,280.051 832.889,277.565 835.603,278.808C837.763,279.798 833.862,288.658 836.644,287.946C841.497,286.704 846.321,286.12 851.629,287.481L851.629,335.99C844.884,337.149 837.901,337.695 831.06,337.902C827.853,337.999 834.692,329.232 832.49,327.335C829.888,325.095 823.382,326.274 820.653,328.94C818.624,330.921 824.677,338.022 821.572,337.998C815.416,337.95 809.537,337.72 804.239,337.528C804.657,331.111 805.065,325.143 805.322,319.348C805.457,316.296 798.463,321.764 796.84,319.817C794.761,317.322 794.823,311.752 797.008,309.371C798.739,307.486 805.551,313.292 805.582,310.295C805.641,304.695 805.482,299.12 804.973,293.306" style="fill:none;stroke:#8c1200;stroke-width:1.96px;"/>
        <path d="M803.365,355.594C808.663,355.786 814.543,356.015 820.698,356.063C823.804,356.087 817.75,348.986 819.779,347.005C822.508,344.34 829.014,343.16 831.616,345.401C833.818,347.297 826.979,356.064 830.186,355.968C837.028,355.761 844.011,355.214 850.756,354.055L850.756,400.678C843.798,400.008 837.732,400.082 831.814,400.564C828.901,400.8 834.917,407.184 833.036,409.237C830.75,411.732 825.156,412.469 822.671,410.542C820.621,408.953 826.024,401.136 823.094,401.529C816.353,402.435 809.333,403.648 800.951,404.677C801.553,398.788 801.921,392.456 802.187,386.139C802.327,382.824 793.5,388.89 791.175,386.181C788.591,383.169 789.008,376.569 791.849,374.091C794.347,371.913 802.439,379.512 802.543,376.271C802.783,368.718 802.977,361.546 803.365,355.594" style="fill:none;stroke:#8c1200;stroke-width:1.96px;"/>
        <path d="M802.541,421.853C810.923,420.823 817.943,419.61 824.683,418.705C827.614,418.311 822.211,426.128 824.26,427.717C826.746,429.644 832.34,428.907 834.626,426.412C836.507,424.359 830.491,417.976 833.404,417.739C839.322,417.258 845.388,417.183 852.345,417.854L852.345,469.872C844.854,471.095 838.88,471.177 833.165,470.745C830.381,470.534 837.282,463.682 835.744,462.093C833.69,459.97 827.671,460.323 824.948,462.255C823.131,463.544 827.659,470.202 824.853,469.82C818.259,468.922 811.202,467.752 801.795,467.249C800.383,459.658 800.013,452.982 800.165,446.818C800.24,443.757 806.391,449.225 807.916,447.492C810.227,444.869 811.206,438.707 809.405,436.325C808.218,434.756 800.443,440.823 800.712,437.966C801.233,432.425 801.997,427.174 802.541,421.853" style="fill:none;stroke:#8b2900;stroke-width:1.96px;"/>
        <path d="M802.086,483.713C811.493,484.215 818.55,485.386 825.144,486.283C827.95,486.665 823.422,480.008 825.239,478.719C827.961,476.787 833.981,476.434 836.035,478.556C837.573,480.145 830.672,486.998 833.456,487.208C839.171,487.64 845.144,487.558 852.636,486.335L852.636,528.63C847.544,527.73 841.943,527.291 836.008,527.264C832.939,527.25 839.968,535.184 838.144,536.879C835.764,539.09 829.386,538.444 826.489,536.111C824.417,534.442 829.781,527.346 826.557,527.545C820.627,527.912 814.476,528.626 808.252,529.646C806.32,522.241 805.398,514.745 804.712,507.478C804.413,504.316 811.626,509.484 813.267,507.379C815.628,504.352 816.499,497.676 814.154,495.369C812.24,493.486 804.159,501.198 803.886,498.149C803.434,493.107 802.93,488.256 802.086,483.713" style="fill:none;stroke:#8b2900;stroke-width:1.96px;"/>
        <path d="M808.339,546.959C814.563,545.939 820.714,545.225 826.644,544.858C829.868,544.659 824.504,551.755 826.576,553.424C829.472,555.757 835.851,556.404 838.231,554.192C840.055,552.497 833.026,544.563 836.095,544.577C842.03,544.604 847.631,545.043 852.723,545.943L852.723,598.302C847.804,597.322 842.153,595.926 836.29,594.628C833.027,593.905 837.397,602.428 835.105,603.603C831.88,605.258 825.569,603.987 823.391,601.245C821.876,599.338 829.698,593.213 826.393,592.638C817.796,591.145 809.361,590.452 802.669,592.115C802.774,586.32 804.324,580.638 805.912,574.886C806.751,571.849 811.718,579.924 814.033,578.645C817.106,576.948 819.647,571.335 818.202,568.096C816.928,565.242 807.6,568.792 808.253,565.689C809.518,559.683 810.047,553.505 808.339,546.959" style="fill:none;stroke:#8b2900;stroke-width:1.96px;"/>
        <path d="M802.668,606.583C809.36,604.919 817.795,605.612 826.392,607.106C829.697,607.68 821.875,613.806 823.39,615.713C825.568,618.454 831.879,619.725 835.104,618.071C837.395,616.895 833.026,608.373 836.289,609.095C842.152,610.394 847.803,611.789 852.722,612.77L852.722,654.808C845.367,655.064 838.294,654.687 831.653,654.267C828.413,654.062 835.498,646.834 833.795,645.205C831.33,642.849 824.679,642.72 821.795,644.841C819.834,646.284 825.276,653.847 822.259,653.69C817.058,653.42 812.214,653.324 807.818,653.753C808.125,647.74 807.564,641.782 806.713,636.016C806.235,632.78 814.245,638.764 815.865,636.752C818.117,633.956 818.407,627.394 815.718,624.835C813.353,622.584 805.665,629.605 805.107,626.514C803.804,619.309 802.56,612.563 802.668,606.583" style="fill:none;stroke:#8a3c00;stroke-width:1.96px;"/>
        <path d="M806.995,668.875C811.392,668.446 816.235,668.542 821.436,668.812C824.453,668.969 819.011,661.406 820.972,659.963C823.856,657.842 830.508,657.971 832.972,660.327C834.676,661.956 827.59,669.184 830.83,669.389C837.471,669.809 844.544,670.186 851.899,669.93L851.899,718.71L807.086,718.71C807.648,710.188 807.63,702.852 807.452,696.192C807.367,693.028 799.997,699.247 798.519,697.433C796.405,694.839 796.842,688.398 798.996,685.816C800.349,684.194 807.247,690.017 807.135,687.103C806.891,680.751 806.689,674.864 806.995,668.875" style="fill:none;stroke:#8a3c00;stroke-width:1.96px;"/>
    </g>
</svg>
